<svg width="245" height="271" viewBox="0 0 245 271" fill="none" xmlns="http://www.w3.org/2000/svg">
<circle cx="112.781" cy="112.781" r="100.195" transform="rotate(-7.74281 112.781 112.781)" fill="white"/>
<path d="M99.2818 13.499C44.45 20.9542 6.0437 71.4479 13.499 126.28L212.063 99.2818C204.607 44.45 154.114 6.04369 99.2818 13.499Z" fill="#FE654D"/>
<path fill-rule="evenodd" clip-rule="evenodd" d="M140.816 106.579L211.744 96.9349C212.589 103.155 213.012 106.265 213.108 112.343L143.027 121.872C141.461 134.98 131.226 145.893 117.536 147.754C103.846 149.616 91.0691 141.832 86.0603 129.618L16.0474 139.137C14.9154 134.905 13.9931 129.914 13.1799 123.933L84.1071 114.289C85.8687 101.403 96.0176 90.7407 109.534 88.9029C123.051 87.0651 135.678 94.6302 140.816 106.579Z" fill="#505050"/>
<circle cx="113.464" cy="117.808" r="16.4878" transform="rotate(-7.74281 113.464 117.808)" fill="white"/>
<path d="M33.6226 262.458C31.6288 262.458 29.8125 262.131 28.1738 261.475C26.535 260.82 25.1284 259.864 23.954 258.607C22.7796 257.351 21.8646 255.808 21.2091 253.978C20.5809 252.12 20.2668 250.004 20.2668 247.628C20.2668 245.251 20.6219 243.148 21.332 241.318C22.0694 239.461 23.0527 237.904 24.2818 236.648C25.5108 235.392 26.9447 234.436 28.5835 233.78C30.2222 233.125 31.9702 232.797 33.8275 232.797C35.0019 232.797 36.0534 232.879 36.9821 233.043C37.938 233.207 38.7574 233.398 39.4402 233.616C40.1503 233.835 40.7239 234.053 41.1609 234.272C41.5979 234.49 41.8983 234.654 42.0622 234.763L40.9151 238.041C40.6693 237.877 40.3142 237.699 39.8499 237.508C39.3856 237.317 38.853 237.126 38.2521 236.935C37.6785 236.744 37.0367 236.593 36.3266 236.484C35.6438 236.348 34.9473 236.279 34.2372 236.279C32.735 236.279 31.383 236.539 30.1813 237.058C28.9795 237.577 27.9553 238.328 27.1086 239.311C26.2619 240.294 25.6064 241.496 25.1421 242.916C24.7051 244.309 24.4866 245.88 24.4866 247.628C24.4866 249.321 24.6778 250.864 25.0602 252.257C25.4698 253.65 26.0707 254.852 26.8628 255.862C27.6548 256.846 28.6381 257.61 29.8125 258.157C31.0143 258.703 32.4072 258.976 33.9913 258.976C35.8213 258.976 37.3371 258.785 38.5389 258.402C39.7406 258.02 40.6419 257.679 41.2428 257.378L42.267 260.656C42.0758 260.792 41.7344 260.97 41.2428 261.188C40.7512 261.379 40.1367 261.571 39.3992 261.762C38.6618 261.953 37.8014 262.117 36.8182 262.253C35.8349 262.39 34.7698 262.458 33.6226 262.458ZM44.8721 247.628C44.8721 245.197 45.2271 243.053 45.9373 241.195C46.6747 239.338 47.6579 237.795 48.887 236.566C50.1434 235.31 51.5909 234.367 53.2297 233.739C54.8958 233.111 56.6574 232.797 58.5147 232.797C60.3446 232.797 62.0653 233.111 63.6767 233.739C65.3155 234.367 66.7494 235.31 67.9784 236.566C69.2075 237.795 70.1771 239.338 70.8872 241.195C71.6247 243.053 71.9934 245.197 71.9934 247.628C71.9934 250.058 71.6247 252.202 70.8872 254.06C70.1771 255.917 69.2075 257.474 67.9784 258.73C66.7494 259.959 65.3155 260.888 63.6767 261.516C62.0653 262.144 60.3446 262.458 58.5147 262.458C56.6574 262.458 54.8958 262.144 53.2297 261.516C51.5909 260.888 50.1434 259.959 48.887 258.73C47.6579 257.474 46.6747 255.917 45.9373 254.06C45.2271 252.202 44.8721 250.058 44.8721 247.628ZM49.0509 247.628C49.0509 249.348 49.2694 250.919 49.7064 252.339C50.1434 253.732 50.7579 254.92 51.55 255.903C52.3693 256.887 53.3526 257.651 54.4997 258.198C55.6742 258.716 56.9852 258.976 58.4327 258.976C59.8803 258.976 61.1776 258.716 62.3248 258.198C63.4719 257.651 64.4415 256.887 65.2335 255.903C66.0529 254.92 66.6811 253.732 67.1181 252.339C67.5551 250.919 67.7736 249.348 67.7736 247.628C67.7736 245.907 67.5551 244.35 67.1181 242.957C66.6811 241.537 66.0529 240.335 65.2335 239.352C64.4415 238.369 63.4719 237.618 62.3248 237.099C61.1776 236.552 59.8803 236.279 58.4327 236.279C56.9852 236.279 55.6742 236.552 54.4997 237.099C53.3526 237.618 52.3693 238.369 51.55 239.352C50.7579 240.335 50.1434 241.537 49.7064 242.957C49.2694 244.35 49.0509 245.907 49.0509 247.628ZM90.6473 257.911C90.3742 257.255 90.0054 256.422 89.5411 255.412C89.1041 254.401 88.6262 253.309 88.1072 252.134C87.5883 250.96 87.0284 249.758 86.4275 248.529C85.8539 247.273 85.3077 246.098 84.7888 245.006C84.2698 243.886 83.7782 242.889 83.3139 242.015C82.8769 241.141 82.5218 240.472 82.2487 240.007C81.9483 243.23 81.7024 246.726 81.5113 250.495C81.3201 254.237 81.1562 258.02 81.0196 261.844H77.1276C77.2368 259.386 77.3598 256.914 77.4963 254.428C77.6329 251.916 77.7831 249.458 77.947 247.054C78.1382 244.623 78.3293 242.261 78.5205 239.966C78.739 237.672 78.9712 235.501 79.217 233.452H82.6993C83.4368 234.654 84.2288 236.074 85.0755 237.713C85.9222 239.352 86.7689 241.073 87.6156 242.875C88.4623 244.651 89.2817 246.439 90.0737 248.242C90.8658 250.017 91.5896 251.643 92.2451 253.117C92.9006 251.643 93.6243 250.017 94.4164 248.242C95.2085 246.439 96.0278 244.651 96.8745 242.875C97.7212 241.073 98.5679 239.352 99.4146 237.713C100.261 236.074 101.053 234.654 101.791 233.452H105.273C106.202 242.602 106.898 252.066 107.363 261.844H103.471C103.334 258.02 103.17 254.237 102.979 250.495C102.788 246.726 102.542 243.23 102.241 240.007C101.968 240.472 101.6 241.141 101.135 242.015C100.698 242.889 100.22 243.886 99.7014 245.006C99.1824 246.098 98.6225 247.273 98.0217 248.529C97.4481 249.758 96.9018 250.96 96.3829 252.134C95.864 253.309 95.3723 254.401 94.908 255.412C94.471 256.422 94.116 257.255 93.8428 257.911H90.6473ZM126.335 257.911C126.062 257.255 125.693 256.422 125.229 255.412C124.792 254.401 124.314 253.309 123.795 252.134C123.276 250.96 122.716 249.758 122.115 248.529C121.542 247.273 120.995 246.098 120.476 245.006C119.957 243.886 119.466 242.889 119.002 242.015C118.565 241.141 118.209 240.472 117.936 240.007C117.636 243.23 117.39 246.726 117.199 250.495C117.008 254.237 116.844 258.02 116.707 261.844H112.815C112.924 259.386 113.047 256.914 113.184 254.428C113.321 251.916 113.471 249.458 113.635 247.054C113.826 244.623 114.017 242.261 114.208 239.966C114.427 237.672 114.659 235.501 114.905 233.452H118.387C119.124 234.654 119.916 236.074 120.763 237.713C121.61 239.352 122.457 241.073 123.303 242.875C124.15 244.651 124.969 246.439 125.761 248.242C126.553 250.017 127.277 251.643 127.933 253.117C128.588 251.643 129.312 250.017 130.104 248.242C130.896 246.439 131.715 244.651 132.562 242.875C133.409 241.073 134.256 239.352 135.102 237.713C135.949 236.074 136.741 234.654 137.478 233.452H140.961C141.889 242.602 142.586 252.066 143.05 261.844H139.158C139.022 258.02 138.858 254.237 138.667 250.495C138.475 246.726 138.23 243.23 137.929 240.007C137.656 240.472 137.287 241.141 136.823 242.015C136.386 242.889 135.908 243.886 135.389 245.006C134.87 246.098 134.31 247.273 133.709 248.529C133.136 249.758 132.589 250.96 132.071 252.134C131.552 253.309 131.06 254.401 130.596 255.412C130.159 256.422 129.804 257.255 129.53 257.911H126.335ZM149.281 261.844V233.452H166.611V236.853H153.255V245.292H165.136V248.611H153.255V258.443H167.635V261.844H149.281ZM186.575 249.963C187.012 250.509 187.558 251.233 188.213 252.134C188.896 253.008 189.593 253.991 190.303 255.084C191.013 256.149 191.709 257.269 192.392 258.443C193.102 259.618 193.703 260.751 194.195 261.844H189.852C189.306 260.806 188.705 259.754 188.05 258.689C187.421 257.624 186.779 256.613 186.124 255.657C185.468 254.674 184.813 253.759 184.157 252.913C183.529 252.066 182.956 251.328 182.437 250.7C182.082 250.728 181.713 250.741 181.331 250.741C180.976 250.741 180.607 250.741 180.224 250.741H176.66V261.844H172.686V233.862C173.806 233.589 175.049 233.411 176.414 233.329C177.807 233.22 179.077 233.166 180.224 233.166C184.212 233.166 187.244 233.917 189.32 235.419C191.423 236.921 192.474 239.161 192.474 242.138C192.474 244.022 191.969 245.634 190.958 246.972C189.975 248.31 188.514 249.307 186.575 249.963ZM180.552 236.648C178.859 236.648 177.562 236.689 176.66 236.771V247.464H179.487C180.853 247.464 182.082 247.395 183.174 247.259C184.267 247.122 185.182 246.863 185.919 246.48C186.684 246.098 187.271 245.565 187.681 244.883C188.09 244.173 188.295 243.244 188.295 242.097C188.295 241.032 188.09 240.144 187.681 239.434C187.271 238.724 186.711 238.164 186.001 237.754C185.318 237.344 184.499 237.058 183.543 236.894C182.614 236.73 181.617 236.648 180.552 236.648ZM210.22 262.458C208.227 262.458 206.41 262.131 204.771 261.475C203.133 260.82 201.726 259.864 200.552 258.607C199.377 257.351 198.462 255.808 197.807 253.978C197.179 252.12 196.865 250.004 196.865 247.628C196.865 245.251 197.22 243.148 197.93 241.318C198.667 239.461 199.65 237.904 200.879 236.648C202.109 235.392 203.542 234.436 205.181 233.78C206.82 233.125 208.568 232.797 210.425 232.797C211.6 232.797 212.651 232.879 213.58 233.043C214.536 233.207 215.355 233.398 216.038 233.616C216.748 233.835 217.322 234.053 217.759 234.272C218.196 234.49 218.496 234.654 218.66 234.763L217.513 238.041C217.267 237.877 216.912 237.699 216.448 237.508C215.983 237.317 215.451 237.126 214.85 236.935C214.276 236.744 213.634 236.593 212.924 236.484C212.241 236.348 211.545 236.279 210.835 236.279C209.333 236.279 207.981 236.539 206.779 237.058C205.577 237.577 204.553 238.328 203.706 239.311C202.86 240.294 202.204 241.496 201.74 242.916C201.303 244.309 201.084 245.88 201.084 247.628C201.084 249.321 201.275 250.864 201.658 252.257C202.068 253.65 202.668 254.852 203.46 255.862C204.253 256.846 205.236 257.61 206.41 258.157C207.612 258.703 209.005 258.976 210.589 258.976C212.419 258.976 213.935 258.785 215.137 258.402C216.338 258.02 217.24 257.679 217.841 257.378L218.865 260.656C218.674 260.792 218.332 260.97 217.841 261.188C217.349 261.379 216.734 261.571 215.997 261.762C215.259 261.953 214.399 262.117 213.416 262.253C212.433 262.39 211.367 262.458 210.22 262.458ZM223.417 261.844V233.452H240.747V236.853H227.391V245.292H239.272V248.611H227.391V258.443H241.771V261.844H223.417Z" fill="#505050"/>
<path d="M79.3215 176.098C79.3215 178.933 78.8977 181.447 78.0499 183.64C77.2021 185.832 76.0328 187.747 74.5419 189.384C73.0802 191.021 71.3555 192.41 69.3676 193.55C67.3797 194.69 65.2457 195.625 62.9655 196.356C60.7145 197.058 58.3759 197.584 55.9495 197.935C53.5231 198.256 51.1406 198.432 48.802 198.461V218.895H28.3679C28.3679 212.201 28.3825 205.536 28.4117 198.9C28.441 192.264 28.4848 185.569 28.5433 178.816C28.6018 175.25 28.6164 171.683 28.5871 168.117C28.5579 164.55 28.631 160.955 28.8064 157.33C32.5483 156.219 36.2901 155.386 40.032 154.83C43.7738 154.275 47.6326 153.997 51.6084 153.997C53.8593 153.997 56.1103 154.187 58.3613 154.567C60.6122 154.918 62.7609 155.488 64.8072 156.277C66.8828 157.067 68.7975 158.061 70.5515 159.259C72.3348 160.429 73.8695 161.832 75.1558 163.469C76.4421 165.106 77.4506 166.977 78.1814 169.082C78.9415 171.157 79.3215 173.496 79.3215 176.098ZM59.8522 177.589C59.8522 175.688 59.2675 174.212 58.0982 173.16C56.9581 172.078 55.4672 171.537 53.6255 171.537C53.0116 171.537 52.3684 171.596 51.6961 171.713C51.0529 171.8 50.439 171.917 49.8544 172.063L49.3282 184.868C49.7374 184.926 50.1321 184.955 50.5121 184.955C50.8922 184.955 51.2868 184.955 51.6961 184.955C52.7485 184.955 53.757 184.78 54.7217 184.429C55.7156 184.078 56.5926 183.581 57.3527 182.938C58.1128 182.266 58.7121 181.491 59.1506 180.614C59.6183 179.708 59.8522 178.699 59.8522 177.589ZM135.932 187.323C135.932 189.983 135.625 192.556 135.011 195.041C134.397 197.496 133.505 199.806 132.336 201.969C131.196 204.132 129.793 206.12 128.127 207.933C126.489 209.716 124.633 211.251 122.558 212.537C120.511 213.823 118.275 214.832 115.849 215.563C113.422 216.264 110.85 216.615 108.131 216.615C105.5 216.615 102.986 216.279 100.589 215.606C98.2209 214.934 95.9991 213.999 93.9236 212.8C91.848 211.572 89.9625 210.111 88.2669 208.415C86.6006 206.69 85.1682 204.79 83.9696 202.715C82.8003 200.61 81.8794 198.359 81.2071 195.962C80.5639 193.564 80.2424 191.065 80.2424 188.463C80.2424 185.92 80.5493 183.435 81.1632 181.009C81.7771 178.553 82.6541 176.244 83.7942 174.081C84.9636 171.917 86.3668 169.929 88.0038 168.117C89.6409 166.304 91.468 164.74 93.4851 163.425C95.5314 162.109 97.7385 161.086 100.106 160.355C102.474 159.625 104.974 159.259 107.605 159.259C111.844 159.259 115.702 159.917 119.181 161.232C122.689 162.548 125.671 164.434 128.127 166.889C130.611 169.315 132.526 172.268 133.871 175.747C135.245 179.196 135.932 183.055 135.932 187.323ZM116.462 188.463C116.462 187.206 116.272 185.993 115.892 184.824C115.542 183.625 115.015 182.573 114.314 181.667C113.612 180.731 112.735 179.986 111.683 179.43C110.66 178.846 109.476 178.553 108.131 178.553C106.757 178.553 105.529 178.802 104.448 179.299C103.366 179.796 102.43 180.483 101.641 181.36C100.881 182.207 100.296 183.216 99.8872 184.385C99.4779 185.525 99.2733 186.739 99.2733 188.025C99.2733 189.253 99.4487 190.48 99.7995 191.708C100.15 192.936 100.676 194.047 101.378 195.041C102.08 196.035 102.942 196.839 103.965 197.453C105.018 198.066 106.231 198.373 107.605 198.373C108.979 198.373 110.207 198.11 111.288 197.584C112.399 197.029 113.334 196.298 114.095 195.392C114.855 194.456 115.439 193.389 115.849 192.191C116.258 190.992 116.462 189.75 116.462 188.463ZM194.603 155.488L173.467 184.692L191.27 215.738L170.924 219.334L157.594 200.39L156.892 220.211L138.651 220.912L140.054 153.734L160.488 154.874L158.909 174.694L172.503 153.734L194.603 155.488ZM235.69 155.05C235.515 157.798 235.354 160.516 235.208 163.206C235.062 165.895 234.872 168.614 234.638 171.362L216.046 172.327L215.607 177.852H228.674L227.71 191.445L214.555 191.884L214.116 198.286H224.991H232.709C232.533 201.501 232.343 204.702 232.139 207.889C231.963 211.046 231.802 214.218 231.656 217.404L193.858 218.281L195.261 155.05H235.69Z" fill="#FFE551"/>
<path d="M74.5419 189.384L72.3239 187.364L72.3139 187.375L72.3041 187.386L74.5419 189.384ZM69.3676 193.55L70.8601 196.152L69.3676 193.55ZM62.9655 196.356L63.8582 199.22L63.8697 199.217L63.8812 199.213L62.9655 196.356ZM55.9495 197.935L56.3437 200.909L56.3612 200.907L56.3788 200.904L55.9495 197.935ZM48.802 198.461L48.7645 195.461L45.802 195.498V198.461H48.802ZM48.802 218.895V221.895H51.802V218.895H48.802ZM28.3679 218.895H25.3679V221.895H28.3679V218.895ZM28.5433 178.816L25.5437 178.767L25.5435 178.779L25.5434 178.79L28.5433 178.816ZM28.8064 157.33L27.9526 154.454L25.9127 155.059L25.8099 157.185L28.8064 157.33ZM40.032 154.83L40.4725 157.798L40.032 154.83ZM58.3613 154.567L57.8618 157.525L57.8805 157.529L57.8993 157.531L58.3613 154.567ZM64.8072 156.277L63.7276 159.076L63.7342 159.079L63.7409 159.082L64.8072 156.277ZM70.5515 159.259L68.859 161.736L68.8826 161.752L68.9065 161.768L70.5515 159.259ZM78.1814 169.082L75.3474 170.066L75.3557 170.089L75.3644 170.113L78.1814 169.082ZM58.0982 173.16L56.0334 175.336L56.062 175.363L56.0913 175.39L58.0982 173.16ZM51.6961 171.713L52.1014 174.685L52.1559 174.678L52.2101 174.668L51.6961 171.713ZM49.8544 172.063L49.1268 169.153L46.9491 169.697L46.8569 171.94L49.8544 172.063ZM49.3282 184.868L46.3307 184.744L46.2194 187.454L48.9039 187.837L49.3282 184.868ZM54.7217 184.429L53.7233 181.6L53.7098 181.605L53.6965 181.61L54.7217 184.429ZM57.3527 182.938L59.2905 185.228L59.3157 185.207L59.3404 185.185L57.3527 182.938ZM59.1506 180.614L56.4847 179.238L56.4759 179.255L56.4673 179.273L59.1506 180.614ZM76.3215 176.098C76.3215 178.638 75.9417 180.774 75.2518 182.558L80.848 184.722C81.8536 182.121 82.3215 179.229 82.3215 176.098H76.3215ZM75.2518 182.558C74.5294 184.426 73.55 186.018 72.3239 187.364L76.7599 191.404C78.5156 189.476 79.8748 187.239 80.848 184.722L75.2518 182.558ZM72.3041 187.386C71.0662 188.773 69.5961 189.96 67.8751 190.948L70.8601 196.152C73.1148 194.859 75.0943 193.27 76.7797 191.382L72.3041 187.386ZM67.8751 190.948C66.078 191.978 64.1383 192.83 62.0498 193.499L63.8812 199.213C66.3531 198.421 68.6814 197.402 70.8601 196.152L67.8751 190.948ZM62.0728 193.492C59.9792 194.145 57.7958 194.637 55.5202 194.966L56.3788 200.904C58.9559 200.531 61.4499 199.971 63.8582 199.22L62.0728 193.492ZM55.5554 194.961C53.2418 195.267 50.9785 195.434 48.7645 195.461L48.8395 201.461C51.3028 201.43 53.8045 201.245 56.3437 200.909L55.5554 194.961ZM45.802 198.461V218.895H51.802V198.461H45.802ZM48.802 215.895H28.3679V221.895H48.802V215.895ZM31.3679 218.895C31.3679 212.205 31.3825 205.544 31.4117 198.913L25.4118 198.886C25.3825 205.527 25.3679 212.196 25.3679 218.895H31.3679ZM31.4117 198.913C31.4409 192.281 31.4848 185.591 31.5432 178.842L25.5434 178.79C25.4849 185.547 25.441 192.246 25.4118 198.886L31.4117 198.913ZM31.5429 178.865C31.6018 175.274 31.6165 171.683 31.587 168.092L25.5872 168.142C25.6163 171.683 25.6018 175.225 25.5437 178.767L31.5429 178.865ZM31.587 168.092C31.5583 164.583 31.6302 161.044 31.8029 157.475L25.8099 157.185C25.6318 160.865 25.5575 164.518 25.5872 168.142L31.587 168.092ZM29.6602 160.206C33.2709 159.134 36.8747 158.332 40.4725 157.798L39.5915 151.863C35.7055 152.44 31.8256 153.304 27.9526 154.454L29.6602 160.206ZM40.4725 157.798C44.0613 157.265 47.7726 156.997 51.6084 156.997V150.997C47.4927 150.997 43.4864 151.285 39.5915 151.863L40.4725 157.798ZM51.6084 156.997C53.6896 156.997 55.7735 157.173 57.8618 157.525L58.8607 151.609C56.447 151.202 54.029 150.997 51.6084 150.997V156.997ZM57.8993 157.531C59.9472 157.851 61.8882 158.367 63.7276 159.076L65.8868 153.478C63.6335 152.609 61.2772 151.985 58.8232 151.603L57.8993 157.531ZM63.7409 159.082C65.6055 159.791 67.3087 160.677 68.859 161.736L72.2441 156.782C70.2864 155.444 68.16 154.343 65.8735 153.473L63.7409 159.082ZM68.9065 161.768C70.4245 162.763 71.7163 163.947 72.7968 165.322L77.5147 161.615C76.0227 159.716 74.2451 158.094 72.1966 156.75L68.9065 161.768ZM72.7968 165.322C73.8637 166.68 74.718 168.253 75.3474 170.066L81.0155 168.098C80.1832 165.701 79.0204 163.532 77.5147 161.615L72.7968 165.322ZM75.3644 170.113C75.9841 171.806 76.3215 173.787 76.3215 176.098H82.3215C82.3215 173.205 81.8989 170.509 80.9985 168.05L75.3644 170.113ZM62.8522 177.589C62.8522 175.03 62.0365 172.668 60.1051 170.93L56.0913 175.39C56.4985 175.756 56.8522 176.347 56.8522 177.589H62.8522ZM60.1629 170.983C58.3708 169.283 56.0942 168.537 53.6255 168.537V174.537C54.8401 174.537 55.5454 174.873 56.0334 175.336L60.1629 170.983ZM53.6255 168.537C52.8214 168.537 52.0056 168.614 51.182 168.757L52.2101 174.668C52.7312 174.578 53.2017 174.537 53.6255 174.537V168.537ZM51.2907 168.74C50.5473 168.841 49.8254 168.978 49.1268 169.153L50.582 174.974C51.0527 174.856 51.5585 174.759 52.1014 174.685L51.2907 168.74ZM46.8569 171.94L46.3307 184.744L52.3256 184.991L52.8518 172.187L46.8569 171.94ZM48.9039 187.837C49.4416 187.914 49.9784 187.955 50.5121 187.955V181.955C50.2858 181.955 50.0333 181.938 49.7524 181.898L48.9039 187.837ZM50.5121 187.955C50.5129 187.955 50.5136 187.955 50.5143 187.955C50.5151 187.955 50.5158 187.955 50.5166 187.955C50.5173 187.955 50.5181 187.955 50.5188 187.955C50.5195 187.955 50.5203 187.955 50.521 187.955C50.5218 187.955 50.5225 187.955 50.5233 187.955C50.524 187.955 50.5247 187.955 50.5255 187.955C50.5262 187.955 50.527 187.955 50.5277 187.955C50.5285 187.955 50.5292 187.955 50.5299 187.955C50.5307 187.955 50.5314 187.955 50.5322 187.955C50.5329 187.955 50.5337 187.955 50.5344 187.955C50.5351 187.955 50.5359 187.955 50.5366 187.955C50.5374 187.955 50.5381 187.955 50.5389 187.955C50.5396 187.955 50.5404 187.955 50.5411 187.955C50.5418 187.955 50.5426 187.955 50.5433 187.955C50.5441 187.955 50.5448 187.955 50.5456 187.955C50.5463 187.955 50.547 187.955 50.5478 187.955C50.5485 187.955 50.5493 187.955 50.55 187.955C50.5508 187.955 50.5515 187.955 50.5523 187.955C50.553 187.955 50.5537 187.955 50.5545 187.955C50.5552 187.955 50.556 187.955 50.5567 187.955C50.5575 187.955 50.5582 187.955 50.559 187.955C50.5597 187.955 50.5604 187.955 50.5612 187.955C50.5619 187.955 50.5627 187.955 50.5634 187.955C50.5642 187.955 50.5649 187.955 50.5657 187.955C50.5664 187.955 50.5671 187.955 50.5679 187.955C50.5686 187.955 50.5694 187.955 50.5701 187.955C50.5709 187.955 50.5716 187.955 50.5724 187.955C50.5731 187.955 50.5739 187.955 50.5746 187.955C50.5753 187.955 50.5761 187.955 50.5768 187.955C50.5776 187.955 50.5783 187.955 50.5791 187.955C50.5798 187.955 50.5806 187.955 50.5813 187.955C50.5821 187.955 50.5828 187.955 50.5835 187.955C50.5843 187.955 50.585 187.955 50.5858 187.955C50.5865 187.955 50.5873 187.955 50.588 187.955C50.5888 187.955 50.5895 187.955 50.5903 187.955C50.591 187.955 50.5918 187.955 50.5925 187.955C50.5932 187.955 50.594 187.955 50.5947 187.955C50.5955 187.955 50.5962 187.955 50.597 187.955C50.5977 187.955 50.5985 187.955 50.5992 187.955C50.6 187.955 50.6007 187.955 50.6015 187.955C50.6022 187.955 50.603 187.955 50.6037 187.955C50.6044 187.955 50.6052 187.955 50.6059 187.955C50.6067 187.955 50.6074 187.955 50.6082 187.955C50.6089 187.955 50.6097 187.955 50.6104 187.955C50.6112 187.955 50.6119 187.955 50.6127 187.955C50.6134 187.955 50.6142 187.955 50.6149 187.955C50.6157 187.955 50.6164 187.955 50.6171 187.955C50.6179 187.955 50.6186 187.955 50.6194 187.955C50.6201 187.955 50.6209 187.955 50.6216 187.955C50.6224 187.955 50.6231 187.955 50.6239 187.955C50.6246 187.955 50.6254 187.955 50.6261 187.955C50.6269 187.955 50.6276 187.955 50.6284 187.955C50.6291 187.955 50.6299 187.955 50.6306 187.955C50.6314 187.955 50.6321 187.955 50.6329 187.955C50.6336 187.955 50.6343 187.955 50.6351 187.955C50.6358 187.955 50.6366 187.955 50.6373 187.955C50.6381 187.955 50.6388 187.955 50.6396 187.955C50.6403 187.955 50.6411 187.955 50.6418 187.955C50.6426 187.955 50.6433 187.955 50.6441 187.955C50.6448 187.955 50.6456 187.955 50.6463 187.955C50.6471 187.955 50.6478 187.955 50.6486 187.955C50.6493 187.955 50.6501 187.955 50.6508 187.955C50.6516 187.955 50.6523 187.955 50.6531 187.955C50.6538 187.955 50.6546 187.955 50.6553 187.955C50.6561 187.955 50.6568 187.955 50.6576 187.955C50.6583 187.955 50.6591 187.955 50.6598 187.955C50.6606 187.955 50.6613 187.955 50.6621 187.955C50.6628 187.955 50.6636 187.955 50.6643 187.955C50.6651 187.955 50.6658 187.955 50.6666 187.955C50.6673 187.955 50.6681 187.955 50.6688 187.955C50.6696 187.955 50.6703 187.955 50.6711 187.955C50.6718 187.955 50.6726 187.955 50.6733 187.955C50.6741 187.955 50.6748 187.955 50.6756 187.955C50.6763 187.955 50.6771 187.955 50.6778 187.955C50.6786 187.955 50.6793 187.955 50.6801 187.955C50.6808 187.955 50.6816 187.955 50.6823 187.955C50.6831 187.955 50.6838 187.955 50.6846 187.955C50.6853 187.955 50.6861 187.955 50.6868 187.955C50.6876 187.955 50.6883 187.955 50.6891 187.955C50.6898 187.955 50.6906 187.955 50.6913 187.955C50.6921 187.955 50.6928 187.955 50.6936 187.955C50.6943 187.955 50.6951 187.955 50.6958 187.955C50.6966 187.955 50.6973 187.955 50.6981 187.955C50.6988 187.955 50.6996 187.955 50.7003 187.955C50.7011 187.955 50.7019 187.955 50.7026 187.955C50.7034 187.955 50.7041 187.955 50.7049 187.955C50.7056 187.955 50.7064 187.955 50.7071 187.955C50.7079 187.955 50.7086 187.955 50.7094 187.955C50.7101 187.955 50.7109 187.955 50.7116 187.955C50.7124 187.955 50.7131 187.955 50.7139 187.955C50.7146 187.955 50.7154 187.955 50.7161 187.955C50.7169 187.955 50.7176 187.955 50.7184 187.955C50.7191 187.955 50.7199 187.955 50.7207 187.955C50.7214 187.955 50.7222 187.955 50.7229 187.955C50.7237 187.955 50.7244 187.955 50.7252 187.955C50.7259 187.955 50.7267 187.955 50.7274 187.955C50.7282 187.955 50.7289 187.955 50.7297 187.955C50.7304 187.955 50.7312 187.955 50.7319 187.955C50.7327 187.955 50.7335 187.955 50.7342 187.955C50.735 187.955 50.7357 187.955 50.7365 187.955C50.7372 187.955 50.738 187.955 50.7387 187.955C50.7395 187.955 50.7402 187.955 50.741 187.955C50.7417 187.955 50.7425 187.955 50.7432 187.955C50.744 187.955 50.7448 187.955 50.7455 187.955C50.7463 187.955 50.747 187.955 50.7478 187.955C50.7485 187.955 50.7493 187.955 50.75 187.955C50.7508 187.955 50.7515 187.955 50.7523 187.955C50.7531 187.955 50.7538 187.955 50.7546 187.955C50.7553 187.955 50.7561 187.955 50.7568 187.955C50.7576 187.955 50.7583 187.955 50.7591 187.955C50.7598 187.955 50.7606 187.955 50.7614 187.955C50.7621 187.955 50.7629 187.955 50.7636 187.955C50.7644 187.955 50.7651 187.955 50.7659 187.955C50.7666 187.955 50.7674 187.955 50.7681 187.955C50.7689 187.955 50.7697 187.955 50.7704 187.955C50.7712 187.955 50.7719 187.955 50.7727 187.955C50.7734 187.955 50.7742 187.955 50.7749 187.955C50.7757 187.955 50.7765 187.955 50.7772 187.955C50.778 187.955 50.7787 187.955 50.7795 187.955C50.7802 187.955 50.781 187.955 50.7817 187.955C50.7825 187.955 50.7832 187.955 50.784 187.955C50.7848 187.955 50.7855 187.955 50.7863 187.955C50.787 187.955 50.7878 187.955 50.7885 187.955C50.7893 187.955 50.7901 187.955 50.7908 187.955C50.7916 187.955 50.7923 187.955 50.7931 187.955C50.7938 187.955 50.7946 187.955 50.7953 187.955C50.7961 187.955 50.7969 187.955 50.7976 187.955C50.7984 187.955 50.7991 187.955 50.7999 187.955C50.8006 187.955 50.8014 187.955 50.8022 187.955C50.8029 187.955 50.8037 187.955 50.8044 187.955C50.8052 187.955 50.8059 187.955 50.8067 187.955C50.8075 187.955 50.8082 187.955 50.809 187.955C50.8097 187.955 50.8105 187.955 50.8112 187.955C50.812 187.955 50.8128 187.955 50.8135 187.955C50.8143 187.955 50.815 187.955 50.8158 187.955C50.8165 187.955 50.8173 187.955 50.8181 187.955C50.8188 187.955 50.8196 187.955 50.8203 187.955C50.8211 187.955 50.8218 187.955 50.8226 187.955C50.8234 187.955 50.8241 187.955 50.8249 187.955C50.8256 187.955 50.8264 187.955 50.8271 187.955C50.8279 187.955 50.8287 187.955 50.8294 187.955C50.8302 187.955 50.8309 187.955 50.8317 187.955C50.8324 187.955 50.8332 187.955 50.834 187.955C50.8347 187.955 50.8355 187.955 50.8362 187.955C50.837 187.955 50.8378 187.955 50.8385 187.955C50.8393 187.955 50.84 187.955 50.8408 187.955C50.8415 187.955 50.8423 187.955 50.8431 187.955C50.8438 187.955 50.8446 187.955 50.8453 187.955C50.8461 187.955 50.8469 187.955 50.8476 187.955C50.8484 187.955 50.8491 187.955 50.8499 187.955C50.8507 187.955 50.8514 187.955 50.8522 187.955C50.8529 187.955 50.8537 187.955 50.8545 187.955C50.8552 187.955 50.856 187.955 50.8567 187.955C50.8575 187.955 50.8582 187.955 50.859 187.955C50.8598 187.955 50.8605 187.955 50.8613 187.955C50.862 187.955 50.8628 187.955 50.8636 187.955C50.8643 187.955 50.8651 187.955 50.8658 187.955C50.8666 187.955 50.8674 187.955 50.8681 187.955C50.8689 187.955 50.8696 187.955 50.8704 187.955C50.8712 187.955 50.8719 187.955 50.8727 187.955C50.8734 187.955 50.8742 187.955 50.875 187.955C50.8757 187.955 50.8765 187.955 50.8772 187.955C50.878 187.955 50.8788 187.955 50.8795 187.955C50.8803 187.955 50.881 187.955 50.8818 187.955C50.8826 187.955 50.8833 187.955 50.8841 187.955C50.8848 187.955 50.8856 187.955 50.8864 187.955C50.8871 187.955 50.8879 187.955 50.8887 187.955C50.8894 187.955 50.8902 187.955 50.8909 187.955C50.8917 187.955 50.8925 187.955 50.8932 187.955C50.894 187.955 50.8947 187.955 50.8955 187.955C50.8963 187.955 50.897 187.955 50.8978 187.955C50.8985 187.955 50.8993 187.955 50.9001 187.955C50.9008 187.955 50.9016 187.955 50.9024 187.955C50.9031 187.955 50.9039 187.955 50.9046 187.955C50.9054 187.955 50.9062 187.955 50.9069 187.955C50.9077 187.955 50.9084 187.955 50.9092 187.955C50.91 187.955 50.9107 187.955 50.9115 187.955C50.9123 187.955 50.913 187.955 50.9138 187.955C50.9145 187.955 50.9153 187.955 50.9161 187.955C50.9168 187.955 50.9176 187.955 50.9184 187.955C50.9191 187.955 50.9199 187.955 50.9206 187.955C50.9214 187.955 50.9222 187.955 50.9229 187.955C50.9237 187.955 50.9245 187.955 50.9252 187.955C50.926 187.955 50.9267 187.955 50.9275 187.955C50.9283 187.955 50.929 187.955 50.9298 187.955C50.9306 187.955 50.9313 187.955 50.9321 187.955C50.9328 187.955 50.9336 187.955 50.9344 187.955C50.9351 187.955 50.9359 187.955 50.9367 187.955C50.9374 187.955 50.9382 187.955 50.939 187.955C50.9397 187.955 50.9405 187.955 50.9412 187.955C50.942 187.955 50.9428 187.955 50.9435 187.955C50.9443 187.955 50.9451 187.955 50.9458 187.955C50.9466 187.955 50.9474 187.955 50.9481 187.955C50.9489 187.955 50.9496 187.955 50.9504 187.955C50.9512 187.955 50.9519 187.955 50.9527 187.955C50.9535 187.955 50.9542 187.955 50.955 187.955C50.9558 187.955 50.9565 187.955 50.9573 187.955C50.958 187.955 50.9588 187.955 50.9596 187.955C50.9603 187.955 50.9611 187.955 50.9619 187.955C50.9626 187.955 50.9634 187.955 50.9642 187.955C50.9649 187.955 50.9657 187.955 50.9665 187.955C50.9672 187.955 50.968 187.955 50.9687 187.955C50.9695 187.955 50.9703 187.955 50.971 187.955C50.9718 187.955 50.9726 187.955 50.9733 187.955C50.9741 187.955 50.9749 187.955 50.9756 187.955C50.9764 187.955 50.9772 187.955 50.9779 187.955C50.9787 187.955 50.9795 187.955 50.9802 187.955C50.981 187.955 50.9818 187.955 50.9825 187.955C50.9833 187.955 50.9841 187.955 50.9848 187.955C50.9856 187.955 50.9863 187.955 50.9871 187.955C50.9879 187.955 50.9886 187.955 50.9894 187.955C50.9902 187.955 50.9909 187.955 50.9917 187.955C50.9925 187.955 50.9932 187.955 50.994 187.955C50.9948 187.955 50.9955 187.955 50.9963 187.955C50.9971 187.955 50.9978 187.955 50.9986 187.955C50.9994 187.955 51.0001 187.955 51.0009 187.955C51.0017 187.955 51.0024 187.955 51.0032 187.955C51.004 187.955 51.0047 187.955 51.0055 187.955C51.0063 187.955 51.007 187.955 51.0078 187.955C51.0086 187.955 51.0093 187.955 51.0101 187.955C51.0109 187.955 51.0116 187.955 51.0124 187.955C51.0132 187.955 51.0139 187.955 51.0147 187.955C51.0155 187.955 51.0162 187.955 51.017 187.955C51.0178 187.955 51.0185 187.955 51.0193 187.955C51.0201 187.955 51.0208 187.955 51.0216 187.955C51.0224 187.955 51.0231 187.955 51.0239 187.955C51.0247 187.955 51.0254 187.955 51.0262 187.955C51.027 187.955 51.0277 187.955 51.0285 187.955C51.0293 187.955 51.0301 187.955 51.0308 187.955C51.0316 187.955 51.0324 187.955 51.0331 187.955C51.0339 187.955 51.0347 187.955 51.0354 187.955C51.0362 187.955 51.037 187.955 51.0377 187.955C51.0385 187.955 51.0393 187.955 51.04 187.955C51.0408 187.955 51.0416 187.955 51.0423 187.955C51.0431 187.955 51.0439 187.955 51.0446 187.955C51.0454 187.955 51.0462 187.955 51.0469 187.955C51.0477 187.955 51.0485 187.955 51.0493 187.955C51.05 187.955 51.0508 187.955 51.0516 187.955C51.0523 187.955 51.0531 187.955 51.0539 187.955C51.0546 187.955 51.0554 187.955 51.0562 187.955C51.0569 187.955 51.0577 187.955 51.0585 187.955C51.0593 187.955 51.06 187.955 51.0608 187.955C51.0616 187.955 51.0623 187.955 51.0631 187.955C51.0639 187.955 51.0646 187.955 51.0654 187.955C51.0662 187.955 51.0669 187.955 51.0677 187.955C51.0685 187.955 51.0693 187.955 51.07 187.955C51.0708 187.955 51.0716 187.955 51.0723 187.955C51.0731 187.955 51.0739 187.955 51.0746 187.955C51.0754 187.955 51.0762 187.955 51.077 187.955C51.0777 187.955 51.0785 187.955 51.0793 187.955C51.08 187.955 51.0808 187.955 51.0816 187.955C51.0823 187.955 51.0831 187.955 51.0839 187.955C51.0847 187.955 51.0854 187.955 51.0862 187.955C51.087 187.955 51.0877 187.955 51.0885 187.955C51.0893 187.955 51.09 187.955 51.0908 187.955C51.0916 187.955 51.0924 187.955 51.0931 187.955C51.0939 187.955 51.0947 187.955 51.0954 187.955C51.0962 187.955 51.097 187.955 51.0978 187.955C51.0985 187.955 51.0993 187.955 51.1001 187.955C51.1008 187.955 51.1016 187.955 51.1024 187.955C51.1032 187.955 51.1039 187.955 51.1047 187.955C51.1055 187.955 51.1062 187.955 51.107 187.955C51.1078 187.955 51.1086 187.955 51.1093 187.955C51.1101 187.955 51.1109 187.955 51.1116 187.955C51.1124 187.955 51.1132 187.955 51.114 187.955C51.1147 187.955 51.1155 187.955 51.1163 187.955C51.117 187.955 51.1178 187.955 51.1186 187.955C51.1194 187.955 51.1201 187.955 51.1209 187.955C51.1217 187.955 51.1224 187.955 51.1232 187.955C51.124 187.955 51.1248 187.955 51.1255 187.955C51.1263 187.955 51.1271 187.955 51.1279 187.955C51.1286 187.955 51.1294 187.955 51.1302 187.955C51.1309 187.955 51.1317 187.955 51.1325 187.955C51.1333 187.955 51.134 187.955 51.1348 187.955C51.1356 187.955 51.1364 187.955 51.1371 187.955C51.1379 187.955 51.1387 187.955 51.1394 187.955C51.1402 187.955 51.141 187.955 51.1418 187.955C51.1425 187.955 51.1433 187.955 51.1441 187.955C51.1449 187.955 51.1456 187.955 51.1464 187.955C51.1472 187.955 51.148 187.955 51.1487 187.955C51.1495 187.955 51.1503 187.955 51.151 187.955C51.1518 187.955 51.1526 187.955 51.1534 187.955C51.1541 187.955 51.1549 187.955 51.1557 187.955C51.1565 187.955 51.1572 187.955 51.158 187.955C51.1588 187.955 51.1596 187.955 51.1603 187.955C51.1611 187.955 51.1619 187.955 51.1627 187.955C51.1634 187.955 51.1642 187.955 51.165 187.955C51.1658 187.955 51.1665 187.955 51.1673 187.955C51.1681 187.955 51.1688 187.955 51.1696 187.955C51.1704 187.955 51.1712 187.955 51.1719 187.955C51.1727 187.955 51.1735 187.955 51.1743 187.955C51.175 187.955 51.1758 187.955 51.1766 187.955C51.1774 187.955 51.1781 187.955 51.1789 187.955C51.1797 187.955 51.1805 187.955 51.1812 187.955C51.182 187.955 51.1828 187.955 51.1836 187.955C51.1843 187.955 51.1851 187.955 51.1859 187.955C51.1867 187.955 51.1874 187.955 51.1882 187.955C51.189 187.955 51.1898 187.955 51.1905 187.955C51.1913 187.955 51.1921 187.955 51.1929 187.955C51.1936 187.955 51.1944 187.955 51.1952 187.955C51.196 187.955 51.1968 187.955 51.1975 187.955C51.1983 187.955 51.1991 187.955 51.1999 187.955C51.2006 187.955 51.2014 187.955 51.2022 187.955C51.203 187.955 51.2037 187.955 51.2045 187.955C51.2053 187.955 51.2061 187.955 51.2068 187.955C51.2076 187.955 51.2084 187.955 51.2092 187.955C51.2099 187.955 51.2107 187.955 51.2115 187.955C51.2123 187.955 51.2131 187.955 51.2138 187.955C51.2146 187.955 51.2154 187.955 51.2162 187.955C51.2169 187.955 51.2177 187.955 51.2185 187.955C51.2193 187.955 51.22 187.955 51.2208 187.955C51.2216 187.955 51.2224 187.955 51.2232 187.955C51.2239 187.955 51.2247 187.955 51.2255 187.955C51.2263 187.955 51.227 187.955 51.2278 187.955C51.2286 187.955 51.2294 187.955 51.2301 187.955C51.2309 187.955 51.2317 187.955 51.2325 187.955C51.2333 187.955 51.234 187.955 51.2348 187.955C51.2356 187.955 51.2364 187.955 51.2371 187.955C51.2379 187.955 51.2387 187.955 51.2395 187.955C51.2403 187.955 51.241 187.955 51.2418 187.955C51.2426 187.955 51.2434 187.955 51.2441 187.955C51.2449 187.955 51.2457 187.955 51.2465 187.955C51.2473 187.955 51.248 187.955 51.2488 187.955C51.2496 187.955 51.2504 187.955 51.2511 187.955C51.2519 187.955 51.2527 187.955 51.2535 187.955C51.2543 187.955 51.255 187.955 51.2558 187.955C51.2566 187.955 51.2574 187.955 51.2582 187.955C51.2589 187.955 51.2597 187.955 51.2605 187.955C51.2613 187.955 51.262 187.955 51.2628 187.955C51.2636 187.955 51.2644 187.955 51.2652 187.955C51.2659 187.955 51.2667 187.955 51.2675 187.955C51.2683 187.955 51.2691 187.955 51.2698 187.955C51.2706 187.955 51.2714 187.955 51.2722 187.955C51.273 187.955 51.2737 187.955 51.2745 187.955C51.2753 187.955 51.2761 187.955 51.2769 187.955C51.2776 187.955 51.2784 187.955 51.2792 187.955C51.28 187.955 51.2808 187.955 51.2815 187.955C51.2823 187.955 51.2831 187.955 51.2839 187.955C51.2847 187.955 51.2854 187.955 51.2862 187.955C51.287 187.955 51.2878 187.955 51.2886 187.955C51.2893 187.955 51.2901 187.955 51.2909 187.955C51.2917 187.955 51.2925 187.955 51.2932 187.955C51.294 187.955 51.2948 187.955 51.2956 187.955C51.2964 187.955 51.2971 187.955 51.2979 187.955C51.2987 187.955 51.2995 187.955 51.3003 187.955C51.301 187.955 51.3018 187.955 51.3026 187.955C51.3034 187.955 51.3042 187.955 51.3049 187.955C51.3057 187.955 51.3065 187.955 51.3073 187.955C51.3081 187.955 51.3088 187.955 51.3096 187.955C51.3104 187.955 51.3112 187.955 51.312 187.955C51.3128 187.955 51.3135 187.955 51.3143 187.955C51.3151 187.955 51.3159 187.955 51.3167 187.955C51.3174 187.955 51.3182 187.955 51.319 187.955C51.3198 187.955 51.3206 187.955 51.3214 187.955C51.3221 187.955 51.3229 187.955 51.3237 187.955C51.3245 187.955 51.3253 187.955 51.326 187.955C51.3268 187.955 51.3276 187.955 51.3284 187.955C51.3292 187.955 51.33 187.955 51.3307 187.955C51.3315 187.955 51.3323 187.955 51.3331 187.955C51.3339 187.955 51.3346 187.955 51.3354 187.955C51.3362 187.955 51.337 187.955 51.3378 187.955C51.3386 187.955 51.3393 187.955 51.3401 187.955C51.3409 187.955 51.3417 187.955 51.3425 187.955C51.3433 187.955 51.344 187.955 51.3448 187.955C51.3456 187.955 51.3464 187.955 51.3472 187.955C51.348 187.955 51.3487 187.955 51.3495 187.955C51.3503 187.955 51.3511 187.955 51.3519 187.955C51.3527 187.955 51.3534 187.955 51.3542 187.955C51.355 187.955 51.3558 187.955 51.3566 187.955C51.3574 187.955 51.3581 187.955 51.3589 187.955C51.3597 187.955 51.3605 187.955 51.3613 187.955C51.3621 187.955 51.3628 187.955 51.3636 187.955C51.3644 187.955 51.3652 187.955 51.366 187.955C51.3668 187.955 51.3675 187.955 51.3683 187.955C51.3691 187.955 51.3699 187.955 51.3707 187.955C51.3715 187.955 51.3722 187.955 51.373 187.955C51.3738 187.955 51.3746 187.955 51.3754 187.955C51.3762 187.955 51.3769 187.955 51.3777 187.955C51.3785 187.955 51.3793 187.955 51.3801 187.955C51.3809 187.955 51.3817 187.955 51.3824 187.955C51.3832 187.955 51.384 187.955 51.3848 187.955C51.3856 187.955 51.3864 187.955 51.3871 187.955C51.3879 187.955 51.3887 187.955 51.3895 187.955C51.3903 187.955 51.3911 187.955 51.3919 187.955C51.3926 187.955 51.3934 187.955 51.3942 187.955C51.395 187.955 51.3958 187.955 51.3966 187.955C51.3974 187.955 51.3981 187.955 51.3989 187.955C51.3997 187.955 51.4005 187.955 51.4013 187.955C51.4021 187.955 51.4029 187.955 51.4036 187.955C51.4044 187.955 51.4052 187.955 51.406 187.955C51.4068 187.955 51.4076 187.955 51.4084 187.955C51.4091 187.955 51.4099 187.955 51.4107 187.955C51.4115 187.955 51.4123 187.955 51.4131 187.955C51.4139 187.955 51.4146 187.955 51.4154 187.955C51.4162 187.955 51.417 187.955 51.4178 187.955C51.4186 187.955 51.4194 187.955 51.4201 187.955C51.4209 187.955 51.4217 187.955 51.4225 187.955C51.4233 187.955 51.4241 187.955 51.4249 187.955C51.4257 187.955 51.4264 187.955 51.4272 187.955C51.428 187.955 51.4288 187.955 51.4296 187.955C51.4304 187.955 51.4312 187.955 51.4319 187.955C51.4327 187.955 51.4335 187.955 51.4343 187.955C51.4351 187.955 51.4359 187.955 51.4367 187.955C51.4375 187.955 51.4382 187.955 51.439 187.955C51.4398 187.955 51.4406 187.955 51.4414 187.955C51.4422 187.955 51.443 187.955 51.4438 187.955C51.4445 187.955 51.4453 187.955 51.4461 187.955C51.4469 187.955 51.4477 187.955 51.4485 187.955C51.4493 187.955 51.4501 187.955 51.4508 187.955C51.4516 187.955 51.4524 187.955 51.4532 187.955C51.454 187.955 51.4548 187.955 51.4556 187.955C51.4564 187.955 51.4571 187.955 51.4579 187.955C51.4587 187.955 51.4595 187.955 51.4603 187.955C51.4611 187.955 51.4619 187.955 51.4627 187.955C51.4635 187.955 51.4642 187.955 51.465 187.955C51.4658 187.955 51.4666 187.955 51.4674 187.955C51.4682 187.955 51.469 187.955 51.4698 187.955C51.4706 187.955 51.4713 187.955 51.4721 187.955C51.4729 187.955 51.4737 187.955 51.4745 187.955C51.4753 187.955 51.4761 187.955 51.4769 187.955C51.4777 187.955 51.4784 187.955 51.4792 187.955C51.48 187.955 51.4808 187.955 51.4816 187.955C51.4824 187.955 51.4832 187.955 51.484 187.955C51.4848 187.955 51.4855 187.955 51.4863 187.955C51.4871 187.955 51.4879 187.955 51.4887 187.955C51.4895 187.955 51.4903 187.955 51.4911 187.955C51.4919 187.955 51.4927 187.955 51.4934 187.955C51.4942 187.955 51.495 187.955 51.4958 187.955C51.4966 187.955 51.4974 187.955 51.4982 187.955C51.499 187.955 51.4998 187.955 51.5006 187.955C51.5013 187.955 51.5021 187.955 51.5029 187.955C51.5037 187.955 51.5045 187.955 51.5053 187.955C51.5061 187.955 51.5069 187.955 51.5077 187.955C51.5085 187.955 51.5092 187.955 51.51 187.955C51.5108 187.955 51.5116 187.955 51.5124 187.955C51.5132 187.955 51.514 187.955 51.5148 187.955C51.5156 187.955 51.5164 187.955 51.5172 187.955C51.5179 187.955 51.5187 187.955 51.5195 187.955C51.5203 187.955 51.5211 187.955 51.5219 187.955C51.5227 187.955 51.5235 187.955 51.5243 187.955C51.5251 187.955 51.5259 187.955 51.5266 187.955C51.5274 187.955 51.5282 187.955 51.529 187.955C51.5298 187.955 51.5306 187.955 51.5314 187.955C51.5322 187.955 51.533 187.955 51.5338 187.955C51.5346 187.955 51.5354 187.955 51.5361 187.955C51.5369 187.955 51.5377 187.955 51.5385 187.955C51.5393 187.955 51.5401 187.955 51.5409 187.955C51.5417 187.955 51.5425 187.955 51.5433 187.955C51.5441 187.955 51.5449 187.955 51.5457 187.955C51.5464 187.955 51.5472 187.955 51.548 187.955C51.5488 187.955 51.5496 187.955 51.5504 187.955C51.5512 187.955 51.552 187.955 51.5528 187.955C51.5536 187.955 51.5544 187.955 51.5552 187.955C51.556 187.955 51.5568 187.955 51.5575 187.955C51.5583 187.955 51.5591 187.955 51.5599 187.955C51.5607 187.955 51.5615 187.955 51.5623 187.955C51.5631 187.955 51.5639 187.955 51.5647 187.955C51.5655 187.955 51.5663 187.955 51.5671 187.955C51.5679 187.955 51.5686 187.955 51.5694 187.955C51.5702 187.955 51.571 187.955 51.5718 187.955C51.5726 187.955 51.5734 187.955 51.5742 187.955C51.575 187.955 51.5758 187.955 51.5766 187.955C51.5774 187.955 51.5782 187.955 51.579 187.955C51.5798 187.955 51.5806 187.955 51.5813 187.955C51.5821 187.955 51.5829 187.955 51.5837 187.955C51.5845 187.955 51.5853 187.955 51.5861 187.955C51.5869 187.955 51.5877 187.955 51.5885 187.955C51.5893 187.955 51.5901 187.955 51.5909 187.955C51.5917 187.955 51.5925 187.955 51.5933 187.955C51.5941 187.955 51.5949 187.955 51.5956 187.955C51.5964 187.955 51.5972 187.955 51.598 187.955C51.5988 187.955 51.5996 187.955 51.6004 187.955C51.6012 187.955 51.602 187.955 51.6028 187.955C51.6036 187.955 51.6044 187.955 51.6052 187.955C51.606 187.955 51.6068 187.955 51.6076 187.955C51.6084 187.955 51.6092 187.955 51.61 187.955C51.6108 187.955 51.6115 187.955 51.6123 187.955C51.6131 187.955 51.6139 187.955 51.6147 187.955C51.6155 187.955 51.6163 187.955 51.6171 187.955C51.6179 187.955 51.6187 187.955 51.6195 187.955C51.6203 187.955 51.6211 187.955 51.6219 187.955C51.6227 187.955 51.6235 187.955 51.6243 187.955C51.6251 187.955 51.6259 187.955 51.6267 187.955C51.6275 187.955 51.6283 187.955 51.6291 187.955C51.6298 187.955 51.6306 187.955 51.6314 187.955C51.6322 187.955 51.633 187.955 51.6338 187.955C51.6346 187.955 51.6354 187.955 51.6362 187.955C51.637 187.955 51.6378 187.955 51.6386 187.955C51.6394 187.955 51.6402 187.955 51.641 187.955C51.6418 187.955 51.6426 187.955 51.6434 187.955C51.6442 187.955 51.645 187.955 51.6458 187.955C51.6466 187.955 51.6474 187.955 51.6482 187.955C51.649 187.955 51.6498 187.955 51.6506 187.955C51.6514 187.955 51.6522 187.955 51.653 187.955C51.6538 187.955 51.6546 187.955 51.6553 187.955C51.6561 187.955 51.6569 187.955 51.6577 187.955C51.6585 187.955 51.6593 187.955 51.6601 187.955C51.6609 187.955 51.6617 187.955 51.6625 187.955C51.6633 187.955 51.6641 187.955 51.6649 187.955C51.6657 187.955 51.6665 187.955 51.6673 187.955C51.6681 187.955 51.6689 187.955 51.6697 187.955C51.6705 187.955 51.6713 187.955 51.6721 187.955C51.6729 187.955 51.6737 187.955 51.6745 187.955C51.6753 187.955 51.6761 187.955 51.6769 187.955C51.6777 187.955 51.6785 187.955 51.6793 187.955C51.6801 187.955 51.6809 187.955 51.6817 187.955C51.6825 187.955 51.6833 187.955 51.6841 187.955C51.6849 187.955 51.6857 187.955 51.6865 187.955C51.6873 187.955 51.6881 187.955 51.6889 187.955C51.6897 187.955 51.6905 187.955 51.6913 187.955C51.6921 187.955 51.6929 187.955 51.6937 187.955C51.6945 187.955 51.6953 187.955 51.6961 187.955V181.955C51.6953 181.955 51.6945 181.955 51.6937 181.955C51.6929 181.955 51.6921 181.955 51.6913 181.955C51.6905 181.955 51.6897 181.955 51.6889 181.955C51.6881 181.955 51.6873 181.955 51.6865 181.955C51.6857 181.955 51.6849 181.955 51.6841 181.955C51.6833 181.955 51.6825 181.955 51.6817 181.955C51.6809 181.955 51.6801 181.955 51.6793 181.955C51.6785 181.955 51.6777 181.955 51.6769 181.955C51.6761 181.955 51.6753 181.955 51.6745 181.955C51.6737 181.955 51.6729 181.955 51.6721 181.955C51.6713 181.955 51.6705 181.955 51.6697 181.955C51.6689 181.955 51.6681 181.955 51.6673 181.955C51.6665 181.955 51.6657 181.955 51.6649 181.955C51.6641 181.955 51.6633 181.955 51.6625 181.955C51.6617 181.955 51.6609 181.955 51.6601 181.955C51.6593 181.955 51.6585 181.955 51.6577 181.955C51.6569 181.955 51.6561 181.955 51.6553 181.955C51.6546 181.955 51.6538 181.955 51.653 181.955C51.6522 181.955 51.6514 181.955 51.6506 181.955C51.6498 181.955 51.649 181.955 51.6482 181.955C51.6474 181.955 51.6466 181.955 51.6458 181.955C51.645 181.955 51.6442 181.955 51.6434 181.955C51.6426 181.955 51.6418 181.955 51.641 181.955C51.6402 181.955 51.6394 181.955 51.6386 181.955C51.6378 181.955 51.637 181.955 51.6362 181.955C51.6354 181.955 51.6346 181.955 51.6338 181.955C51.633 181.955 51.6322 181.955 51.6314 181.955C51.6306 181.955 51.6298 181.955 51.6291 181.955C51.6283 181.955 51.6275 181.955 51.6267 181.955C51.6259 181.955 51.6251 181.955 51.6243 181.955C51.6235 181.955 51.6227 181.955 51.6219 181.955C51.6211 181.955 51.6203 181.955 51.6195 181.955C51.6187 181.955 51.6179 181.955 51.6171 181.955C51.6163 181.955 51.6155 181.955 51.6147 181.955C51.6139 181.955 51.6131 181.955 51.6123 181.955C51.6115 181.955 51.6108 181.955 51.61 181.955C51.6092 181.955 51.6084 181.955 51.6076 181.955C51.6068 181.955 51.606 181.955 51.6052 181.955C51.6044 181.955 51.6036 181.955 51.6028 181.955C51.602 181.955 51.6012 181.955 51.6004 181.955C51.5996 181.955 51.5988 181.955 51.598 181.955C51.5972 181.955 51.5964 181.955 51.5956 181.955C51.5949 181.955 51.5941 181.955 51.5933 181.955C51.5925 181.955 51.5917 181.955 51.5909 181.955C51.5901 181.955 51.5893 181.955 51.5885 181.955C51.5877 181.955 51.5869 181.955 51.5861 181.955C51.5853 181.955 51.5845 181.955 51.5837 181.955C51.5829 181.955 51.5821 181.955 51.5813 181.955C51.5806 181.955 51.5798 181.955 51.579 181.955C51.5782 181.955 51.5774 181.955 51.5766 181.955C51.5758 181.955 51.575 181.955 51.5742 181.955C51.5734 181.955 51.5726 181.955 51.5718 181.955C51.571 181.955 51.5702 181.955 51.5694 181.955C51.5686 181.955 51.5679 181.955 51.5671 181.955C51.5663 181.955 51.5655 181.955 51.5647 181.955C51.5639 181.955 51.5631 181.955 51.5623 181.955C51.5615 181.955 51.5607 181.955 51.5599 181.955C51.5591 181.955 51.5583 181.955 51.5575 181.955C51.5568 181.955 51.556 181.955 51.5552 181.955C51.5544 181.955 51.5536 181.955 51.5528 181.955C51.552 181.955 51.5512 181.955 51.5504 181.955C51.5496 181.955 51.5488 181.955 51.548 181.955C51.5472 181.955 51.5464 181.955 51.5457 181.955C51.5449 181.955 51.5441 181.955 51.5433 181.955C51.5425 181.955 51.5417 181.955 51.5409 181.955C51.5401 181.955 51.5393 181.955 51.5385 181.955C51.5377 181.955 51.5369 181.955 51.5361 181.955C51.5354 181.955 51.5346 181.955 51.5338 181.955C51.533 181.955 51.5322 181.955 51.5314 181.955C51.5306 181.955 51.5298 181.955 51.529 181.955C51.5282 181.955 51.5274 181.955 51.5266 181.955C51.5259 181.955 51.5251 181.955 51.5243 181.955C51.5235 181.955 51.5227 181.955 51.5219 181.955C51.5211 181.955 51.5203 181.955 51.5195 181.955C51.5187 181.955 51.5179 181.955 51.5172 181.955C51.5164 181.955 51.5156 181.955 51.5148 181.955C51.514 181.955 51.5132 181.955 51.5124 181.955C51.5116 181.955 51.5108 181.955 51.51 181.955C51.5092 181.955 51.5085 181.955 51.5077 181.955C51.5069 181.955 51.5061 181.955 51.5053 181.955C51.5045 181.955 51.5037 181.955 51.5029 181.955C51.5021 181.955 51.5013 181.955 51.5006 181.955C51.4998 181.955 51.499 181.955 51.4982 181.955C51.4974 181.955 51.4966 181.955 51.4958 181.955C51.495 181.955 51.4942 181.955 51.4934 181.955C51.4927 181.955 51.4919 181.955 51.4911 181.955C51.4903 181.955 51.4895 181.955 51.4887 181.955C51.4879 181.955 51.4871 181.955 51.4863 181.955C51.4855 181.955 51.4848 181.955 51.484 181.955C51.4832 181.955 51.4824 181.955 51.4816 181.955C51.4808 181.955 51.48 181.955 51.4792 181.955C51.4784 181.955 51.4777 181.955 51.4769 181.955C51.4761 181.955 51.4753 181.955 51.4745 181.955C51.4737 181.955 51.4729 181.955 51.4721 181.955C51.4713 181.955 51.4706 181.955 51.4698 181.955C51.469 181.955 51.4682 181.955 51.4674 181.955C51.4666 181.955 51.4658 181.955 51.465 181.955C51.4642 181.955 51.4635 181.955 51.4627 181.955C51.4619 181.955 51.4611 181.955 51.4603 181.955C51.4595 181.955 51.4587 181.955 51.4579 181.955C51.4571 181.955 51.4564 181.955 51.4556 181.955C51.4548 181.955 51.454 181.955 51.4532 181.955C51.4524 181.955 51.4516 181.955 51.4508 181.955C51.4501 181.955 51.4493 181.955 51.4485 181.955C51.4477 181.955 51.4469 181.955 51.4461 181.955C51.4453 181.955 51.4445 181.955 51.4438 181.955C51.443 181.955 51.4422 181.955 51.4414 181.955C51.4406 181.955 51.4398 181.955 51.439 181.955C51.4382 181.955 51.4375 181.955 51.4367 181.955C51.4359 181.955 51.4351 181.955 51.4343 181.955C51.4335 181.955 51.4327 181.955 51.4319 181.955C51.4312 181.955 51.4304 181.955 51.4296 181.955C51.4288 181.955 51.428 181.955 51.4272 181.955C51.4264 181.955 51.4257 181.955 51.4249 181.955C51.4241 181.955 51.4233 181.955 51.4225 181.955C51.4217 181.955 51.4209 181.955 51.4201 181.955C51.4194 181.955 51.4186 181.955 51.4178 181.955C51.417 181.955 51.4162 181.955 51.4154 181.955C51.4146 181.955 51.4139 181.955 51.4131 181.955C51.4123 181.955 51.4115 181.955 51.4107 181.955C51.4099 181.955 51.4091 181.955 51.4084 181.955C51.4076 181.955 51.4068 181.955 51.406 181.955C51.4052 181.955 51.4044 181.955 51.4036 181.955C51.4029 181.955 51.4021 181.955 51.4013 181.955C51.4005 181.955 51.3997 181.955 51.3989 181.955C51.3981 181.955 51.3974 181.955 51.3966 181.955C51.3958 181.955 51.395 181.955 51.3942 181.955C51.3934 181.955 51.3926 181.955 51.3919 181.955C51.3911 181.955 51.3903 181.955 51.3895 181.955C51.3887 181.955 51.3879 181.955 51.3871 181.955C51.3864 181.955 51.3856 181.955 51.3848 181.955C51.384 181.955 51.3832 181.955 51.3824 181.955C51.3817 181.955 51.3809 181.955 51.3801 181.955C51.3793 181.955 51.3785 181.955 51.3777 181.955C51.3769 181.955 51.3762 181.955 51.3754 181.955C51.3746 181.955 51.3738 181.955 51.373 181.955C51.3722 181.955 51.3715 181.955 51.3707 181.955C51.3699 181.955 51.3691 181.955 51.3683 181.955C51.3675 181.955 51.3668 181.955 51.366 181.955C51.3652 181.955 51.3644 181.955 51.3636 181.955C51.3628 181.955 51.3621 181.955 51.3613 181.955C51.3605 181.955 51.3597 181.955 51.3589 181.955C51.3581 181.955 51.3574 181.955 51.3566 181.955C51.3558 181.955 51.355 181.955 51.3542 181.955C51.3534 181.955 51.3527 181.955 51.3519 181.955C51.3511 181.955 51.3503 181.955 51.3495 181.955C51.3487 181.955 51.348 181.955 51.3472 181.955C51.3464 181.955 51.3456 181.955 51.3448 181.955C51.344 181.955 51.3433 181.955 51.3425 181.955C51.3417 181.955 51.3409 181.955 51.3401 181.955C51.3393 181.955 51.3386 181.955 51.3378 181.955C51.337 181.955 51.3362 181.955 51.3354 181.955C51.3346 181.955 51.3339 181.955 51.3331 181.955C51.3323 181.955 51.3315 181.955 51.3307 181.955C51.33 181.955 51.3292 181.955 51.3284 181.955C51.3276 181.955 51.3268 181.955 51.326 181.955C51.3253 181.955 51.3245 181.955 51.3237 181.955C51.3229 181.955 51.3221 181.955 51.3214 181.955C51.3206 181.955 51.3198 181.955 51.319 181.955C51.3182 181.955 51.3174 181.955 51.3167 181.955C51.3159 181.955 51.3151 181.955 51.3143 181.955C51.3135 181.955 51.3128 181.955 51.312 181.955C51.3112 181.955 51.3104 181.955 51.3096 181.955C51.3088 181.955 51.3081 181.955 51.3073 181.955C51.3065 181.955 51.3057 181.955 51.3049 181.955C51.3042 181.955 51.3034 181.955 51.3026 181.955C51.3018 181.955 51.301 181.955 51.3003 181.955C51.2995 181.955 51.2987 181.955 51.2979 181.955C51.2971 181.955 51.2964 181.955 51.2956 181.955C51.2948 181.955 51.294 181.955 51.2932 181.955C51.2925 181.955 51.2917 181.955 51.2909 181.955C51.2901 181.955 51.2893 181.955 51.2886 181.955C51.2878 181.955 51.287 181.955 51.2862 181.955C51.2854 181.955 51.2847 181.955 51.2839 181.955C51.2831 181.955 51.2823 181.955 51.2815 181.955C51.2808 181.955 51.28 181.955 51.2792 181.955C51.2784 181.955 51.2776 181.955 51.2769 181.955C51.2761 181.955 51.2753 181.955 51.2745 181.955C51.2737 181.955 51.273 181.955 51.2722 181.955C51.2714 181.955 51.2706 181.955 51.2698 181.955C51.2691 181.955 51.2683 181.955 51.2675 181.955C51.2667 181.955 51.2659 181.955 51.2652 181.955C51.2644 181.955 51.2636 181.955 51.2628 181.955C51.262 181.955 51.2613 181.955 51.2605 181.955C51.2597 181.955 51.2589 181.955 51.2582 181.955C51.2574 181.955 51.2566 181.955 51.2558 181.955C51.255 181.955 51.2543 181.955 51.2535 181.955C51.2527 181.955 51.2519 181.955 51.2511 181.955C51.2504 181.955 51.2496 181.955 51.2488 181.955C51.248 181.955 51.2473 181.955 51.2465 181.955C51.2457 181.955 51.2449 181.955 51.2441 181.955C51.2434 181.955 51.2426 181.955 51.2418 181.955C51.241 181.955 51.2403 181.955 51.2395 181.955C51.2387 181.955 51.2379 181.955 51.2371 181.955C51.2364 181.955 51.2356 181.955 51.2348 181.955C51.234 181.955 51.2333 181.955 51.2325 181.955C51.2317 181.955 51.2309 181.955 51.2301 181.955C51.2294 181.955 51.2286 181.955 51.2278 181.955C51.227 181.955 51.2263 181.955 51.2255 181.955C51.2247 181.955 51.2239 181.955 51.2232 181.955C51.2224 181.955 51.2216 181.955 51.2208 181.955C51.22 181.955 51.2193 181.955 51.2185 181.955C51.2177 181.955 51.2169 181.955 51.2162 181.955C51.2154 181.955 51.2146 181.955 51.2138 181.955C51.2131 181.955 51.2123 181.955 51.2115 181.955C51.2107 181.955 51.2099 181.955 51.2092 181.955C51.2084 181.955 51.2076 181.955 51.2068 181.955C51.2061 181.955 51.2053 181.955 51.2045 181.955C51.2037 181.955 51.203 181.955 51.2022 181.955C51.2014 181.955 51.2006 181.955 51.1999 181.955C51.1991 181.955 51.1983 181.955 51.1975 181.955C51.1968 181.955 51.196 181.955 51.1952 181.955C51.1944 181.955 51.1936 181.955 51.1929 181.955C51.1921 181.955 51.1913 181.955 51.1905 181.955C51.1898 181.955 51.189 181.955 51.1882 181.955C51.1874 181.955 51.1867 181.955 51.1859 181.955C51.1851 181.955 51.1843 181.955 51.1836 181.955C51.1828 181.955 51.182 181.955 51.1812 181.955C51.1805 181.955 51.1797 181.955 51.1789 181.955C51.1781 181.955 51.1774 181.955 51.1766 181.955C51.1758 181.955 51.175 181.955 51.1743 181.955C51.1735 181.955 51.1727 181.955 51.1719 181.955C51.1712 181.955 51.1704 181.955 51.1696 181.955C51.1688 181.955 51.1681 181.955 51.1673 181.955C51.1665 181.955 51.1658 181.955 51.165 181.955C51.1642 181.955 51.1634 181.955 51.1627 181.955C51.1619 181.955 51.1611 181.955 51.1603 181.955C51.1596 181.955 51.1588 181.955 51.158 181.955C51.1572 181.955 51.1565 181.955 51.1557 181.955C51.1549 181.955 51.1541 181.955 51.1534 181.955C51.1526 181.955 51.1518 181.955 51.151 181.955C51.1503 181.955 51.1495 181.955 51.1487 181.955C51.148 181.955 51.1472 181.955 51.1464 181.955C51.1456 181.955 51.1449 181.955 51.1441 181.955C51.1433 181.955 51.1425 181.955 51.1418 181.955C51.141 181.955 51.1402 181.955 51.1394 181.955C51.1387 181.955 51.1379 181.955 51.1371 181.955C51.1364 181.955 51.1356 181.955 51.1348 181.955C51.134 181.955 51.1333 181.955 51.1325 181.955C51.1317 181.955 51.1309 181.955 51.1302 181.955C51.1294 181.955 51.1286 181.955 51.1279 181.955C51.1271 181.955 51.1263 181.955 51.1255 181.955C51.1248 181.955 51.124 181.955 51.1232 181.955C51.1224 181.955 51.1217 181.955 51.1209 181.955C51.1201 181.955 51.1194 181.955 51.1186 181.955C51.1178 181.955 51.117 181.955 51.1163 181.955C51.1155 181.955 51.1147 181.955 51.114 181.955C51.1132 181.955 51.1124 181.955 51.1116 181.955C51.1109 181.955 51.1101 181.955 51.1093 181.955C51.1086 181.955 51.1078 181.955 51.107 181.955C51.1062 181.955 51.1055 181.955 51.1047 181.955C51.1039 181.955 51.1032 181.955 51.1024 181.955C51.1016 181.955 51.1008 181.955 51.1001 181.955C51.0993 181.955 51.0985 181.955 51.0978 181.955C51.097 181.955 51.0962 181.955 51.0954 181.955C51.0947 181.955 51.0939 181.955 51.0931 181.955C51.0924 181.955 51.0916 181.955 51.0908 181.955C51.09 181.955 51.0893 181.955 51.0885 181.955C51.0877 181.955 51.087 181.955 51.0862 181.955C51.0854 181.955 51.0847 181.955 51.0839 181.955C51.0831 181.955 51.0823 181.955 51.0816 181.955C51.0808 181.955 51.08 181.955 51.0793 181.955C51.0785 181.955 51.0777 181.955 51.077 181.955C51.0762 181.955 51.0754 181.955 51.0746 181.955C51.0739 181.955 51.0731 181.955 51.0723 181.955C51.0716 181.955 51.0708 181.955 51.07 181.955C51.0693 181.955 51.0685 181.955 51.0677 181.955C51.0669 181.955 51.0662 181.955 51.0654 181.955C51.0646 181.955 51.0639 181.955 51.0631 181.955C51.0623 181.955 51.0616 181.955 51.0608 181.955C51.06 181.955 51.0593 181.955 51.0585 181.955C51.0577 181.955 51.0569 181.955 51.0562 181.955C51.0554 181.955 51.0546 181.955 51.0539 181.955C51.0531 181.955 51.0523 181.955 51.0516 181.955C51.0508 181.955 51.05 181.955 51.0493 181.955C51.0485 181.955 51.0477 181.955 51.0469 181.955C51.0462 181.955 51.0454 181.955 51.0446 181.955C51.0439 181.955 51.0431 181.955 51.0423 181.955C51.0416 181.955 51.0408 181.955 51.04 181.955C51.0393 181.955 51.0385 181.955 51.0377 181.955C51.037 181.955 51.0362 181.955 51.0354 181.955C51.0347 181.955 51.0339 181.955 51.0331 181.955C51.0324 181.955 51.0316 181.955 51.0308 181.955C51.0301 181.955 51.0293 181.955 51.0285 181.955C51.0277 181.955 51.027 181.955 51.0262 181.955C51.0254 181.955 51.0247 181.955 51.0239 181.955C51.0231 181.955 51.0224 181.955 51.0216 181.955C51.0208 181.955 51.0201 181.955 51.0193 181.955C51.0185 181.955 51.0178 181.955 51.017 181.955C51.0162 181.955 51.0155 181.955 51.0147 181.955C51.0139 181.955 51.0132 181.955 51.0124 181.955C51.0116 181.955 51.0109 181.955 51.0101 181.955C51.0093 181.955 51.0086 181.955 51.0078 181.955C51.007 181.955 51.0063 181.955 51.0055 181.955C51.0047 181.955 51.004 181.955 51.0032 181.955C51.0024 181.955 51.0017 181.955 51.0009 181.955C51.0001 181.955 50.9994 181.955 50.9986 181.955C50.9978 181.955 50.9971 181.955 50.9963 181.955C50.9955 181.955 50.9948 181.955 50.994 181.955C50.9932 181.955 50.9925 181.955 50.9917 181.955C50.9909 181.955 50.9902 181.955 50.9894 181.955C50.9886 181.955 50.9879 181.955 50.9871 181.955C50.9863 181.955 50.9856 181.955 50.9848 181.955C50.9841 181.955 50.9833 181.955 50.9825 181.955C50.9818 181.955 50.981 181.955 50.9802 181.955C50.9795 181.955 50.9787 181.955 50.9779 181.955C50.9772 181.955 50.9764 181.955 50.9756 181.955C50.9749 181.955 50.9741 181.955 50.9733 181.955C50.9726 181.955 50.9718 181.955 50.971 181.955C50.9703 181.955 50.9695 181.955 50.9687 181.955C50.968 181.955 50.9672 181.955 50.9665 181.955C50.9657 181.955 50.9649 181.955 50.9642 181.955C50.9634 181.955 50.9626 181.955 50.9619 181.955C50.9611 181.955 50.9603 181.955 50.9596 181.955C50.9588 181.955 50.958 181.955 50.9573 181.955C50.9565 181.955 50.9558 181.955 50.955 181.955C50.9542 181.955 50.9535 181.955 50.9527 181.955C50.9519 181.955 50.9512 181.955 50.9504 181.955C50.9496 181.955 50.9489 181.955 50.9481 181.955C50.9474 181.955 50.9466 181.955 50.9458 181.955C50.9451 181.955 50.9443 181.955 50.9435 181.955C50.9428 181.955 50.942 181.955 50.9412 181.955C50.9405 181.955 50.9397 181.955 50.939 181.955C50.9382 181.955 50.9374 181.955 50.9367 181.955C50.9359 181.955 50.9351 181.955 50.9344 181.955C50.9336 181.955 50.9328 181.955 50.9321 181.955C50.9313 181.955 50.9306 181.955 50.9298 181.955C50.929 181.955 50.9283 181.955 50.9275 181.955C50.9267 181.955 50.926 181.955 50.9252 181.955C50.9245 181.955 50.9237 181.955 50.9229 181.955C50.9222 181.955 50.9214 181.955 50.9206 181.955C50.9199 181.955 50.9191 181.955 50.9184 181.955C50.9176 181.955 50.9168 181.955 50.9161 181.955C50.9153 181.955 50.9145 181.955 50.9138 181.955C50.913 181.955 50.9123 181.955 50.9115 181.955C50.9107 181.955 50.91 181.955 50.9092 181.955C50.9084 181.955 50.9077 181.955 50.9069 181.955C50.9062 181.955 50.9054 181.955 50.9046 181.955C50.9039 181.955 50.9031 181.955 50.9024 181.955C50.9016 181.955 50.9008 181.955 50.9001 181.955C50.8993 181.955 50.8985 181.955 50.8978 181.955C50.897 181.955 50.8963 181.955 50.8955 181.955C50.8947 181.955 50.894 181.955 50.8932 181.955C50.8925 181.955 50.8917 181.955 50.8909 181.955C50.8902 181.955 50.8894 181.955 50.8887 181.955C50.8879 181.955 50.8871 181.955 50.8864 181.955C50.8856 181.955 50.8848 181.955 50.8841 181.955C50.8833 181.955 50.8826 181.955 50.8818 181.955C50.881 181.955 50.8803 181.955 50.8795 181.955C50.8788 181.955 50.878 181.955 50.8772 181.955C50.8765 181.955 50.8757 181.955 50.875 181.955C50.8742 181.955 50.8734 181.955 50.8727 181.955C50.8719 181.955 50.8712 181.955 50.8704 181.955C50.8696 181.955 50.8689 181.955 50.8681 181.955C50.8674 181.955 50.8666 181.955 50.8658 181.955C50.8651 181.955 50.8643 181.955 50.8636 181.955C50.8628 181.955 50.862 181.955 50.8613 181.955C50.8605 181.955 50.8598 181.955 50.859 181.955C50.8582 181.955 50.8575 181.955 50.8567 181.955C50.856 181.955 50.8552 181.955 50.8545 181.955C50.8537 181.955 50.8529 181.955 50.8522 181.955C50.8514 181.955 50.8507 181.955 50.8499 181.955C50.8491 181.955 50.8484 181.955 50.8476 181.955C50.8469 181.955 50.8461 181.955 50.8453 181.955C50.8446 181.955 50.8438 181.955 50.8431 181.955C50.8423 181.955 50.8415 181.955 50.8408 181.955C50.84 181.955 50.8393 181.955 50.8385 181.955C50.8378 181.955 50.837 181.955 50.8362 181.955C50.8355 181.955 50.8347 181.955 50.834 181.955C50.8332 181.955 50.8324 181.955 50.8317 181.955C50.8309 181.955 50.8302 181.955 50.8294 181.955C50.8287 181.955 50.8279 181.955 50.8271 181.955C50.8264 181.955 50.8256 181.955 50.8249 181.955C50.8241 181.955 50.8234 181.955 50.8226 181.955C50.8218 181.955 50.8211 181.955 50.8203 181.955C50.8196 181.955 50.8188 181.955 50.8181 181.955C50.8173 181.955 50.8165 181.955 50.8158 181.955C50.815 181.955 50.8143 181.955 50.8135 181.955C50.8128 181.955 50.812 181.955 50.8112 181.955C50.8105 181.955 50.8097 181.955 50.809 181.955C50.8082 181.955 50.8075 181.955 50.8067 181.955C50.8059 181.955 50.8052 181.955 50.8044 181.955C50.8037 181.955 50.8029 181.955 50.8022 181.955C50.8014 181.955 50.8006 181.955 50.7999 181.955C50.7991 181.955 50.7984 181.955 50.7976 181.955C50.7969 181.955 50.7961 181.955 50.7953 181.955C50.7946 181.955 50.7938 181.955 50.7931 181.955C50.7923 181.955 50.7916 181.955 50.7908 181.955C50.7901 181.955 50.7893 181.955 50.7885 181.955C50.7878 181.955 50.787 181.955 50.7863 181.955C50.7855 181.955 50.7848 181.955 50.784 181.955C50.7832 181.955 50.7825 181.955 50.7817 181.955C50.781 181.955 50.7802 181.955 50.7795 181.955C50.7787 181.955 50.778 181.955 50.7772 181.955C50.7765 181.955 50.7757 181.955 50.7749 181.955C50.7742 181.955 50.7734 181.955 50.7727 181.955C50.7719 181.955 50.7712 181.955 50.7704 181.955C50.7697 181.955 50.7689 181.955 50.7681 181.955C50.7674 181.955 50.7666 181.955 50.7659 181.955C50.7651 181.955 50.7644 181.955 50.7636 181.955C50.7629 181.955 50.7621 181.955 50.7614 181.955C50.7606 181.955 50.7598 181.955 50.7591 181.955C50.7583 181.955 50.7576 181.955 50.7568 181.955C50.7561 181.955 50.7553 181.955 50.7546 181.955C50.7538 181.955 50.7531 181.955 50.7523 181.955C50.7515 181.955 50.7508 181.955 50.75 181.955C50.7493 181.955 50.7485 181.955 50.7478 181.955C50.747 181.955 50.7463 181.955 50.7455 181.955C50.7448 181.955 50.744 181.955 50.7432 181.955C50.7425 181.955 50.7417 181.955 50.741 181.955C50.7402 181.955 50.7395 181.955 50.7387 181.955C50.738 181.955 50.7372 181.955 50.7365 181.955C50.7357 181.955 50.735 181.955 50.7342 181.955C50.7335 181.955 50.7327 181.955 50.7319 181.955C50.7312 181.955 50.7304 181.955 50.7297 181.955C50.7289 181.955 50.7282 181.955 50.7274 181.955C50.7267 181.955 50.7259 181.955 50.7252 181.955C50.7244 181.955 50.7237 181.955 50.7229 181.955C50.7222 181.955 50.7214 181.955 50.7207 181.955C50.7199 181.955 50.7191 181.955 50.7184 181.955C50.7176 181.955 50.7169 181.955 50.7161 181.955C50.7154 181.955 50.7146 181.955 50.7139 181.955C50.7131 181.955 50.7124 181.955 50.7116 181.955C50.7109 181.955 50.7101 181.955 50.7094 181.955C50.7086 181.955 50.7079 181.955 50.7071 181.955C50.7064 181.955 50.7056 181.955 50.7049 181.955C50.7041 181.955 50.7034 181.955 50.7026 181.955C50.7019 181.955 50.7011 181.955 50.7003 181.955C50.6996 181.955 50.6988 181.955 50.6981 181.955C50.6973 181.955 50.6966 181.955 50.6958 181.955C50.6951 181.955 50.6943 181.955 50.6936 181.955C50.6928 181.955 50.6921 181.955 50.6913 181.955C50.6906 181.955 50.6898 181.955 50.6891 181.955C50.6883 181.955 50.6876 181.955 50.6868 181.955C50.6861 181.955 50.6853 181.955 50.6846 181.955C50.6838 181.955 50.6831 181.955 50.6823 181.955C50.6816 181.955 50.6808 181.955 50.6801 181.955C50.6793 181.955 50.6786 181.955 50.6778 181.955C50.6771 181.955 50.6763 181.955 50.6756 181.955C50.6748 181.955 50.6741 181.955 50.6733 181.955C50.6726 181.955 50.6718 181.955 50.6711 181.955C50.6703 181.955 50.6696 181.955 50.6688 181.955C50.6681 181.955 50.6673 181.955 50.6666 181.955C50.6658 181.955 50.6651 181.955 50.6643 181.955C50.6636 181.955 50.6628 181.955 50.6621 181.955C50.6613 181.955 50.6606 181.955 50.6598 181.955C50.6591 181.955 50.6583 181.955 50.6576 181.955C50.6568 181.955 50.6561 181.955 50.6553 181.955C50.6546 181.955 50.6538 181.955 50.6531 181.955C50.6523 181.955 50.6516 181.955 50.6508 181.955C50.6501 181.955 50.6493 181.955 50.6486 181.955C50.6478 181.955 50.6471 181.955 50.6463 181.955C50.6456 181.955 50.6448 181.955 50.6441 181.955C50.6433 181.955 50.6426 181.955 50.6418 181.955C50.6411 181.955 50.6403 181.955 50.6396 181.955C50.6388 181.955 50.6381 181.955 50.6373 181.955C50.6366 181.955 50.6358 181.955 50.6351 181.955C50.6343 181.955 50.6336 181.955 50.6329 181.955C50.6321 181.955 50.6314 181.955 50.6306 181.955C50.6299 181.955 50.6291 181.955 50.6284 181.955C50.6276 181.955 50.6269 181.955 50.6261 181.955C50.6254 181.955 50.6246 181.955 50.6239 181.955C50.6231 181.955 50.6224 181.955 50.6216 181.955C50.6209 181.955 50.6201 181.955 50.6194 181.955C50.6186 181.955 50.6179 181.955 50.6171 181.955C50.6164 181.955 50.6157 181.955 50.6149 181.955C50.6142 181.955 50.6134 181.955 50.6127 181.955C50.6119 181.955 50.6112 181.955 50.6104 181.955C50.6097 181.955 50.6089 181.955 50.6082 181.955C50.6074 181.955 50.6067 181.955 50.6059 181.955C50.6052 181.955 50.6044 181.955 50.6037 181.955C50.603 181.955 50.6022 181.955 50.6015 181.955C50.6007 181.955 50.6 181.955 50.5992 181.955C50.5985 181.955 50.5977 181.955 50.597 181.955C50.5962 181.955 50.5955 181.955 50.5947 181.955C50.594 181.955 50.5932 181.955 50.5925 181.955C50.5918 181.955 50.591 181.955 50.5903 181.955C50.5895 181.955 50.5888 181.955 50.588 181.955C50.5873 181.955 50.5865 181.955 50.5858 181.955C50.585 181.955 50.5843 181.955 50.5835 181.955C50.5828 181.955 50.5821 181.955 50.5813 181.955C50.5806 181.955 50.5798 181.955 50.5791 181.955C50.5783 181.955 50.5776 181.955 50.5768 181.955C50.5761 181.955 50.5753 181.955 50.5746 181.955C50.5739 181.955 50.5731 181.955 50.5724 181.955C50.5716 181.955 50.5709 181.955 50.5701 181.955C50.5694 181.955 50.5686 181.955 50.5679 181.955C50.5671 181.955 50.5664 181.955 50.5657 181.955C50.5649 181.955 50.5642 181.955 50.5634 181.955C50.5627 181.955 50.5619 181.955 50.5612 181.955C50.5604 181.955 50.5597 181.955 50.559 181.955C50.5582 181.955 50.5575 181.955 50.5567 181.955C50.556 181.955 50.5552 181.955 50.5545 181.955C50.5537 181.955 50.553 181.955 50.5523 181.955C50.5515 181.955 50.5508 181.955 50.55 181.955C50.5493 181.955 50.5485 181.955 50.5478 181.955C50.547 181.955 50.5463 181.955 50.5456 181.955C50.5448 181.955 50.5441 181.955 50.5433 181.955C50.5426 181.955 50.5418 181.955 50.5411 181.955C50.5404 181.955 50.5396 181.955 50.5389 181.955C50.5381 181.955 50.5374 181.955 50.5366 181.955C50.5359 181.955 50.5351 181.955 50.5344 181.955C50.5337 181.955 50.5329 181.955 50.5322 181.955C50.5314 181.955 50.5307 181.955 50.5299 181.955C50.5292 181.955 50.5285 181.955 50.5277 181.955C50.527 181.955 50.5262 181.955 50.5255 181.955C50.5247 181.955 50.524 181.955 50.5233 181.955C50.5225 181.955 50.5218 181.955 50.521 181.955C50.5203 181.955 50.5195 181.955 50.5188 181.955C50.5181 181.955 50.5173 181.955 50.5166 181.955C50.5158 181.955 50.5151 181.955 50.5143 181.955C50.5136 181.955 50.5129 181.955 50.5121 181.955V187.955ZM51.6961 187.955C53.0892 187.955 54.4453 187.722 55.7469 187.248L53.6965 181.61C53.0687 181.838 52.4078 181.955 51.6961 181.955V187.955ZM55.7202 187.258C57.037 186.793 58.2366 186.12 59.2905 185.228L55.4149 180.648C54.9487 181.043 54.3943 181.363 53.7233 181.6L55.7202 187.258ZM59.3404 185.185C60.3779 184.267 61.2176 183.188 61.8338 181.956L56.4673 179.273C56.2066 179.794 55.8476 180.264 55.365 180.691L59.3404 185.185ZM61.8164 181.99C62.5229 180.621 62.8522 179.134 62.8522 177.589H56.8522C56.8522 178.264 56.7137 178.795 56.4847 179.238L61.8164 181.99ZM135.011 195.041L137.921 195.768L137.923 195.76L135.011 195.041ZM132.336 201.969L129.697 200.543L129.689 200.556L129.682 200.57L132.336 201.969ZM128.127 207.933L125.918 205.902L125.917 205.904L128.127 207.933ZM122.558 212.537L120.977 209.987L120.969 209.992L120.961 209.997L122.558 212.537ZM115.849 215.563L116.682 218.444L116.698 218.44L116.714 218.435L115.849 215.563ZM100.589 215.606L99.7693 218.492L99.7786 218.495L100.589 215.606ZM93.9236 212.8L92.3962 215.382L92.4097 215.39L92.4233 215.398L93.9236 212.8ZM88.2669 208.415L86.1093 210.499L86.1273 210.518L86.1456 210.536L88.2669 208.415ZM83.9696 202.715L81.3472 204.171L81.3592 204.193L81.3717 204.215L83.9696 202.715ZM81.2071 195.962L78.3096 196.739L78.314 196.755L78.3186 196.772L81.2071 195.962ZM81.1632 181.009L84.0716 181.745L84.0737 181.736L81.1632 181.009ZM83.7942 174.081L81.1551 172.654L81.1476 172.668L81.1403 172.682L83.7942 174.081ZM93.4851 163.425L91.8628 160.901L91.8545 160.907L91.8463 160.912L93.4851 163.425ZM119.181 161.232L118.12 164.039L118.128 164.041L119.181 161.232ZM128.127 166.889L126.005 169.01L126.018 169.023L126.031 169.036L128.127 166.889ZM133.871 175.747L131.073 176.828L131.078 176.843L131.084 176.857L133.871 175.747ZM115.892 184.824L113.013 185.666L113.026 185.709L113.039 185.751L115.892 184.824ZM114.314 181.667L111.914 183.467L111.928 183.485L111.942 183.503L114.314 181.667ZM111.683 179.43L110.194 182.035L110.238 182.06L110.283 182.083L111.683 179.43ZM101.641 181.36L99.4113 179.353L99.4074 179.357L101.641 181.36ZM99.8872 184.385L102.711 185.399L102.715 185.388L102.719 185.376L99.8872 184.385ZM101.378 195.041L103.829 193.311L101.378 195.041ZM103.965 197.453L102.422 200.025L102.438 200.035L102.454 200.044L103.965 197.453ZM111.288 197.584L112.601 200.282L112.615 200.275L112.63 200.267L111.288 197.584ZM114.095 195.392L116.393 197.319L116.408 197.302L116.423 197.283L114.095 195.392ZM132.932 187.323C132.932 189.75 132.652 192.081 132.099 194.321L137.923 195.76C138.598 193.031 138.932 190.216 138.932 187.323H132.932ZM132.101 194.313C131.546 196.533 130.744 198.606 129.697 200.543L134.975 203.396C136.267 201.005 137.248 198.46 137.921 195.768L132.101 194.313ZM129.682 200.57C128.664 202.503 127.41 204.279 125.918 205.902L130.335 209.963C132.175 207.961 133.729 205.762 134.99 203.368L129.682 200.57ZM125.917 205.904C124.466 207.484 122.822 208.844 120.977 209.987L124.138 215.087C126.444 213.658 128.513 211.948 130.336 209.961L125.917 205.904ZM120.961 209.997C119.153 211.133 117.165 212.033 114.983 212.69L116.714 218.435C119.385 217.63 121.869 216.513 124.154 215.077L120.961 209.997ZM115.015 212.681C112.88 213.298 110.589 213.615 108.131 213.615V219.615C111.11 219.615 113.965 219.23 116.682 218.444L115.015 212.681ZM108.131 213.615C105.758 213.615 103.518 213.312 101.399 212.718L99.7786 218.495C102.454 219.245 105.242 219.615 108.131 219.615V213.615ZM101.408 212.72C99.2718 212.114 97.2794 211.274 95.4238 210.202L92.4233 215.398C94.7188 216.724 97.1699 217.754 99.7693 218.492L101.408 212.72ZM95.451 210.218C93.5907 209.117 91.9049 207.81 90.3882 206.294L86.1456 210.536C88.02 212.411 90.1053 214.027 92.3962 215.382L95.451 210.218ZM90.4245 206.331C88.9282 204.782 87.6437 203.078 86.5676 201.214L81.3717 204.215C82.6927 206.502 84.2731 208.599 86.1093 210.499L90.4245 206.331ZM86.5921 201.258C85.5402 199.364 84.707 197.331 84.0956 195.151L78.3186 196.772C79.0519 199.386 80.0604 201.855 81.3472 204.171L86.5921 201.258ZM84.1046 195.184C83.5327 193.053 83.2424 190.815 83.2424 188.463H77.2424C77.2424 191.315 77.5952 194.076 78.3096 196.739L84.1046 195.184ZM83.2424 188.463C83.2424 186.164 83.5195 183.927 84.0716 181.745L78.2549 180.273C77.5791 182.944 77.2424 185.676 77.2424 188.463H83.2424ZM84.0737 181.736C84.6313 179.506 85.424 177.423 86.4482 175.479L81.1403 172.682C79.8842 175.065 78.9229 177.601 78.2528 180.281L84.0737 181.736ZM86.4333 175.507C87.4897 173.553 88.7546 171.761 90.2301 170.128L85.7775 166.106C83.9789 168.097 82.4375 170.282 81.1551 172.654L86.4333 175.507ZM90.2301 170.128C91.6963 168.505 93.3265 167.11 95.1239 165.938L91.8463 160.912C89.6094 162.371 87.5855 164.104 85.7775 166.106L90.2301 170.128ZM95.1073 165.949C96.9203 164.783 98.8786 163.874 100.991 163.222L99.2217 157.489C96.5984 158.299 94.1425 159.436 91.8628 160.901L95.1073 165.949ZM100.991 163.222C103.055 162.585 105.255 162.259 107.605 162.259V156.259C104.692 156.259 101.893 156.664 99.2217 157.489L100.991 163.222ZM107.605 162.259C111.531 162.259 115.024 162.868 118.12 164.039L120.242 158.426C116.381 156.966 112.156 156.259 107.605 156.259V162.259ZM118.128 164.041C121.267 165.219 123.876 166.881 126.005 169.01L130.248 164.768C127.466 161.986 124.111 159.877 120.235 158.423L118.128 164.041ZM126.031 169.036C128.185 171.14 129.871 173.721 131.073 176.828L136.669 174.665C135.181 170.815 133.037 167.491 130.222 164.743L126.031 169.036ZM131.084 176.857C132.298 179.905 132.932 183.379 132.932 187.323H138.932C138.932 182.731 138.192 178.488 136.658 174.637L131.084 176.857ZM119.462 188.463C119.462 186.899 119.225 185.372 118.745 183.896L113.039 185.751C113.32 186.614 113.462 187.514 113.462 188.463H119.462ZM118.772 183.981C118.325 182.455 117.637 181.058 116.686 179.83L111.942 183.503C112.394 184.087 112.758 184.796 113.013 185.666L118.772 183.981ZM116.714 179.867C115.741 178.57 114.521 177.536 113.083 176.777L110.283 182.083C110.95 182.436 111.483 182.892 111.914 183.467L116.714 179.867ZM113.171 176.825C111.634 175.947 109.923 175.553 108.131 175.553V181.553C109.028 181.553 109.685 181.744 110.194 182.035L113.171 176.825ZM108.131 175.553C106.391 175.553 104.726 175.869 103.195 176.573L105.7 182.025C106.333 181.734 107.123 181.553 108.131 181.553V175.553ZM103.195 176.573C101.745 177.239 100.476 178.169 99.4113 179.353L103.871 183.366C104.384 182.796 104.986 182.353 105.7 182.025L103.195 176.573ZM99.4074 179.357C98.3609 180.524 97.5839 181.885 97.0556 183.394L102.719 185.376C103.009 184.547 103.401 183.89 103.875 183.362L99.4074 179.357ZM97.0636 183.372C96.5305 184.857 96.2733 186.415 96.2733 188.025H102.273C102.273 187.063 102.425 186.194 102.711 185.399L97.0636 183.372ZM96.2733 188.025C96.2733 189.542 96.4906 191.047 96.9149 192.532L102.684 190.884C102.407 189.913 102.273 188.963 102.273 188.025H96.2733ZM96.9149 192.532C97.3537 194.068 98.0216 195.488 98.9272 196.771L103.829 193.311C103.331 192.606 102.947 191.804 102.684 190.884L96.9149 192.532ZM98.9272 196.771C99.8645 198.099 101.034 199.192 102.422 200.025L105.509 194.88C104.85 194.485 104.295 193.971 103.829 193.311L98.9272 196.771ZM102.454 200.044C104.021 200.958 105.769 201.373 107.605 201.373V195.373C106.693 195.373 106.014 195.175 105.477 194.861L102.454 200.044ZM107.605 201.373C109.369 201.373 111.055 201.033 112.601 200.282L109.976 194.886C109.358 195.187 108.589 195.373 107.605 195.373V201.373ZM112.63 200.267C114.089 199.538 115.356 198.556 116.393 197.319L111.796 193.464C111.313 194.04 110.709 194.52 109.947 194.901L112.63 200.267ZM116.423 197.283C117.417 196.059 118.17 194.677 118.688 193.16L113.009 191.221C112.709 192.102 112.292 192.853 111.766 193.5L116.423 197.283ZM118.688 193.16C119.205 191.644 119.462 190.074 119.462 188.463H113.462C113.462 189.425 113.311 190.34 113.009 191.221L118.688 193.16ZM194.603 155.488L197.033 157.247L200.165 152.92L194.84 152.498L194.603 155.488ZM173.467 184.692L171.037 182.933L169.901 184.503L170.865 186.185L173.467 184.692ZM191.27 215.738L191.793 218.692L195.997 217.949L193.873 214.246L191.27 215.738ZM170.924 219.334L168.471 221.06L169.568 222.62L171.446 222.288L170.924 219.334ZM157.594 200.39L160.047 198.664L154.911 191.366L154.596 200.284L157.594 200.39ZM156.892 220.211L157.007 223.208L159.792 223.101L159.89 220.317L156.892 220.211ZM138.651 220.912L135.651 220.85L135.585 224.032L138.766 223.91L138.651 220.912ZM140.054 153.734L140.221 150.739L137.119 150.566L137.054 153.671L140.054 153.734ZM160.488 154.874L163.478 155.112L163.722 152.05L160.655 151.879L160.488 154.874ZM158.909 174.694L155.919 174.456L161.426 176.327L158.909 174.694ZM172.503 153.734L172.74 150.744L170.958 150.602L169.986 152.102L172.503 153.734ZM192.173 153.729L171.037 182.933L175.898 186.451L197.033 157.247L192.173 153.729ZM170.865 186.185L188.668 217.23L193.873 214.246L176.07 183.2L170.865 186.185ZM190.748 212.784L170.402 216.379L171.446 222.288L191.793 218.692L190.748 212.784ZM173.377 217.607L160.047 198.664L155.14 202.117L168.471 221.06L173.377 217.607ZM154.596 200.284L153.894 220.105L159.89 220.317L160.592 200.497L154.596 200.284ZM156.777 217.213L138.535 217.914L138.766 223.91L157.007 223.208L156.777 217.213ZM141.65 220.975L143.053 153.797L137.054 153.671L135.651 220.85L141.65 220.975ZM139.887 156.729L160.321 157.87L160.655 151.879L140.221 150.739L139.887 156.729ZM157.497 154.636L155.919 174.456L161.9 174.933L163.478 155.112L157.497 154.636ZM161.426 176.327L175.02 155.367L169.986 152.102L156.392 173.062L161.426 176.327ZM172.265 156.725L194.366 158.479L194.84 152.498L172.74 150.744L172.265 156.725ZM235.69 155.05L238.684 155.241L238.888 152.05H235.69V155.05ZM234.638 171.362L234.793 174.358L237.405 174.222L237.627 171.616L234.638 171.362ZM216.046 172.327L215.89 169.331L213.263 169.467L213.055 172.089L216.046 172.327ZM215.607 177.852L212.617 177.614L212.36 180.852H215.607V177.852ZM228.674 177.852L231.667 178.064L231.895 174.852H228.674V177.852ZM227.71 191.445L227.81 194.443L230.511 194.353L230.702 191.657L227.71 191.445ZM214.555 191.884L214.455 188.885L211.747 188.976L211.562 191.679L214.555 191.884ZM214.116 198.286L211.123 198.081L210.904 201.286H214.116V198.286ZM232.709 198.286L235.704 198.449L235.877 195.286H232.709V198.286ZM232.139 207.889L229.145 207.697L229.144 207.709L229.143 207.722L232.139 207.889ZM231.656 217.404L231.726 220.403L234.525 220.339L234.653 217.542L231.656 217.404ZM193.858 218.281L190.858 218.215L190.789 221.353L193.927 221.28L193.858 218.281ZM195.261 155.05V152.05H192.327L192.262 154.983L195.261 155.05ZM232.697 154.859C232.521 157.616 232.359 160.344 232.213 163.043L238.204 163.369C238.349 160.689 238.51 157.979 238.684 155.241L232.697 154.859ZM232.213 163.043C232.068 165.701 231.88 168.389 231.649 171.107L237.627 171.616C237.864 168.839 238.056 166.089 238.204 163.369L232.213 163.043ZM234.483 168.366L215.89 169.331L216.201 175.322L234.793 174.358L234.483 168.366ZM213.055 172.089L212.617 177.614L218.598 178.089L219.036 172.564L213.055 172.089ZM215.607 180.852H228.674V174.852H215.607V180.852ZM225.682 177.639L224.717 191.233L230.702 191.657L231.667 178.064L225.682 177.639ZM227.61 188.447L214.455 188.885L214.655 194.882L227.81 194.443L227.61 188.447ZM211.562 191.679L211.123 198.081L217.109 198.491L217.548 192.089L211.562 191.679ZM214.116 201.286H224.991V195.286H214.116V201.286ZM224.991 201.286H232.709V195.286H224.991V201.286ZM229.713 198.122C229.538 201.328 229.349 204.52 229.145 207.697L235.132 208.081C235.338 204.885 235.528 201.674 235.704 198.449L229.713 198.122ZM229.143 207.722C228.967 210.889 228.806 214.071 228.659 217.267L234.653 217.542C234.799 214.365 234.959 211.203 235.134 208.055L229.143 207.722ZM231.587 214.405L193.788 215.282L193.927 221.28L231.726 220.403L231.587 214.405ZM196.857 218.348L198.26 155.116L192.262 154.983L190.858 218.215L196.857 218.348ZM195.261 158.05H235.69V152.05H195.261V158.05Z" fill="#5869D1"/>
</svg>
